<?xml version="1.0" encoding="utf-8"?>
<!-- Generator: Adobe Illustrator 24.3.0, SVG Export Plug-In . SVG Version: 6.00 Build 0)  -->
<svg version="1.1" id="图层_1" xmlns="http://www.w3.org/2000/svg" xmlns:xlink="http://www.w3.org/1999/xlink" x="0px" y="0px"
	 viewBox="0 0 1014.7 966.3" style="enable-background:new 0 0 1014.7 966.3;" xml:space="preserve">
<path d="M750.4,471.1c6-12,15-18,27-18h150l0,0c8.7,0,15.8,2.8,21.5,8.5c5.7,5.7,8.5,13,8.5,22c0,9-2.8,16.2-8.5,21.5
	c-5.7,5.3-12.8,8-21.5,8h-132l-138,312l0,0c-4,8-10,13.2-18,15.5s-15.8,1.8-23.5-1.5s-12.8-9-15.5-17l-219-597l-147,273l0,0
	c-6.7,10-15.7,15-27,15h-120l0,0c-9.3,0-16.7-2.7-22-8s-8-12.5-8-21.5s2.7-16.3,8-22s12.7-8.5,22-8.5h102l171-312l0,0
	c4-8,9.7-13.2,17-15.5s14.7-1.8,22,1.5c7.3,3.3,12.3,9,15,17l216,591L750.4,471.1L750.4,471.1z"/>
</svg>
