<?xml version="1.0" encoding="utf-8"?>
<!-- Generator: Adobe Illustrator 24.3.0, SVG Export Plug-In . SVG Version: 6.00 Build 0)  -->
<svg version="1.1" id="图层_1" xmlns="http://www.w3.org/2000/svg" xmlns:xlink="http://www.w3.org/1999/xlink" x="0px" y="0px"
	 viewBox="0 0 960 1020.9" style="enable-background:new 0 0 960 1020.9;" xml:space="preserve">
<path d="M860,477L860,477c19.3,39.3,29.3,79.3,30,120l0,0c0,76-18.7,141.7-56,197l0,0c-34,50.7-82.7,89.3-146,116l0,0
	c-59.3,26-127,39-203,39h-10l0,0c-75.3,0-143-13-203-39l0,0c-62.7-26.7-111.3-65.3-146-116l0,0c-37.3-55.3-56-121-56-197l0,0
	c0-80,35.7-157,107-231l0,0c25.3-25.3,48.7-45.7,70-61l0,0c6.7-3.3,10.7-5.7,12-7l0,0c-17.3-8.7-31.3-20.5-42-35.5s-16-31.7-16-50
	s5.7-35.3,17-51s26.5-28,45.5-37S303,111,325,111l0,0c15.3,0,29,2.3,41,7l0,0c7.3,2.7,12.3,5.3,15,8l0,0c0.7,0.7,2,1,4,1s3,0.3,3,1
	l0,0c2.7-4.7,8.3-11,17-19l7-8l0,0c19.3-16.7,41.3-26.3,66-29l0,0c24,2.7,45.7,12.3,65,29l0,0c9.3,8,17.7,17,25,27l0,0
	c1.3,2,4.3,3,9,3l5-3l0,0c3.3-2,6.7-3.7,10-5l0,0c12-4.7,25.7-7,41-7l0,0c22.7,0,43.5,4.5,62.5,13.5s34,21.2,45,36.5
	s16.5,32.3,16.5,51s-5.3,35.5-16,50.5s-24.7,26.8-42,35.5l12,7l0,0c28.7,20,52,40.3,70,61l0,0C815,404.4,841.4,439.6,860,477z
	 M502,558h100l0,0c7.3,0,13.2-2.3,17.5-7s6.5-10.5,6.5-17.5s-2.2-12.8-6.5-17.5s-10.2-7-17.5-7h-73l80-80l0,0c4.7-4.7,7-10.3,7-17
	s-2.3-12.3-7-17s-10.3-7-17-7s-12.3,2.3-17,7l-97,97l-97-97l0,0c-5.3-4.7-11.2-7-17.5-7s-11.8,2.3-16.5,7s-7,10.3-7,17
	s2.3,12.3,7,17l80,80h-73l0,0c-7.3,0-13.2,2.3-17.5,7s-6.5,10.5-6.5,17.5s2.2,12.8,6.5,17.5s10.2,7,17.5,7h100v58h-98l0,0
	c-6.7,0-12.3,2.2-17,6.5s-7,10.2-7,17.5s2.3,13.3,7,18s10.3,7,17,7h98v94l0,0c0,7.3,2.2,13.2,6.5,17.5s10.2,6.5,17.5,6.5
	s13.2-2.2,17.5-6.5s6.5-10.2,6.5-17.5v-94h97l0,0c7.3,0,13.2-2.3,17.5-7s6.5-10.7,6.5-18s-2.2-13.2-6.5-17.5S606.3,616,599,616h-97
	L502,558L502,558z"/>
</svg>
