<?xml version="1.0" encoding="utf-8"?>
<!-- Generator: Adobe Illustrator 24.3.0, SVG Export Plug-In . SVG Version: 6.00 Build 0)  -->
<svg version="1.1" id="图层_1" xmlns="http://www.w3.org/2000/svg" xmlns:xlink="http://www.w3.org/1999/xlink" x="0px" y="0px"
	 viewBox="0 0 1007.8 933.4" style="enable-background:new 0 0 1007.8 933.4;" xml:space="preserve">
<path d="M888.9,641.7c0,9-3.2,16.7-9.5,23c-6.3,6.3-13.8,9.5-22.5,9.5s-16.3-3-23-9l-332-330l-328,331l0,0c-6,6-13.5,9-22.5,9
	s-16.7-3-23-9s-9.5-13.5-9.5-22.5s3.3-16.5,10-22.5l350-353l0,0c6-6.7,13.3-10,22-10c8.7,0,16.3,3,23,9l2,2l353,350l0,0
	C885.6,625.2,888.9,632.7,888.9,641.7z"/>
</svg>
