<?xml version="1.0" encoding="utf-8"?>
<!-- Generator: Adobe Illustrator 24.3.0, SVG Export Plug-In . SVG Version: 6.00 Build 0)  -->
<svg version="1.1" id="图层_1" xmlns="http://www.w3.org/2000/svg" xmlns:xlink="http://www.w3.org/1999/xlink" x="0px" y="0px"
	 viewBox="0 0 1112.4 1028.9" style="enable-background:new 0 0 1112.4 1028.9;" xml:space="preserve">
<path d="M892.2,172.9L892.2,172.9c-8.7,0-16,3-22,9l0,0l-341,309c-7.3,7.3-11,15.2-11,23.5c0,8.3,3.7,16.2,11,23.5l0,0l341,309
	c6.7,6.7,14.5,9.7,23.5,9s16.5-4.2,22.5-10.5s8.7-14.2,8-23.5s-4.3-16.7-11-22l0,0l-316-286l316-286c6.7-5.3,10.3-12.5,11-21.5
	s-2.5-16.8-9.5-23.5C907.7,176.3,900.2,172.9,892.2,172.9z M561.2,172.9L561.2,172.9c-8.7,0-15.7,3-21,9l0,0l-342,309
	c-6.7,7.3-10,15.2-10,23.5c0,8.3,3.3,16.2,10,23.5l0,0l342,309c6,6.7,13.5,9.7,22.5,9s16.5-4.2,22.5-10.5s8.7-14.2,8-23.5
	s-4.3-16.7-11-22l0,0l-315-286l315-286c6.7-6,10.3-13.3,11-22c0.7-8.7-2.3-16.3-9-23C577.5,176.3,569.8,172.9,561.2,172.9z"/>
</svg>
