<?xml version="1.0" encoding="utf-8"?>
<!-- Generator: Adobe Illustrator 24.3.0, SVG Export Plug-In . SVG Version: 6.00 Build 0)  -->
<svg version="1.1" id="图层_1" xmlns="http://www.w3.org/2000/svg" xmlns:xlink="http://www.w3.org/1999/xlink" x="0px" y="0px"
	 viewBox="0 0 1086.7 1080" style="enable-background:new 0 0 1086.7 1080;" xml:space="preserve">
<path d="M580.4,539.5L580.4,539.5c0,8.7-3.7,16.7-11,24l0,0l-341,309c-6,6.7-13.7,9.7-23,9s-16.8-4.2-22.5-10.5s-8.2-14.2-7.5-23.5
	s4-16.7,10-22l0,0l316-286l-316-286c-6-6-9.3-13.3-10-22c-0.7-8.7,2.3-16.3,9-23s14.2-10,22.5-10s15.5,3,21.5,9l0,0l341,309
	C576.7,523.8,580.4,531.5,580.4,539.5z M900.4,563.5L900.4,563.5l-341,309c-6.7,6.7-14.5,9.7-23.5,9s-16.5-4.2-22.5-10.5
	c-6-6.3-8.7-14.2-8-23.5s4.3-16.7,11-22l0,0l316-286l-316-286c-6.7-6-10.3-13.3-11-22c-0.7-8.7,2.5-16.3,9.5-23c7-6.7,14.7-10,23-10
	c8.3,0,15.5,3,21.5,9l0,0l341,309c7.3,7.3,11,15.2,11,23.5C911.4,548.3,907.7,556.1,900.4,563.5z"/>
</svg>
