<?xml version="1.0" encoding="utf-8"?>
<!-- Generator: Adobe Illustrator 24.3.0, SVG Export Plug-In . SVG Version: 6.00 Build 0)  -->
<svg version="1.1" id="图层_1" xmlns="http://www.w3.org/2000/svg" xmlns:xlink="http://www.w3.org/1999/xlink" x="0px" y="0px"
	 viewBox="0 0 960 921.3" style="enable-background:new 0 0 960 921.3;" xml:space="preserve">
<path d="M300,845.2L300,845.2c10.7,0,17.7-3,21-9l0,0l363-352c7.3-6.7,11-14.3,11-23s-3.7-16.3-11-23l0,0l-365-352
	c-6-6.7-13.3-10-22-10s-16.2,3.2-22.5,9.5c-6.3,6.3-9.5,13.8-9.5,22.5s3,16,9,22l0,0l342,331l-339,329c-6.7,6-10,13.3-10,22
	s3,16.3,9,23S290,845.2,300,845.2z"/>
</svg>
