<?xml version="1.0" encoding="utf-8"?>
<!-- Generator: Adobe Illustrator 24.3.0, SVG Export Plug-In . SVG Version: 6.00 Build 0)  -->
<svg version="1.1" id="图层_1" xmlns="http://www.w3.org/2000/svg" xmlns:xlink="http://www.w3.org/1999/xlink" x="0px" y="0px"
	 viewBox="0 0 948.9 960.7" style="enable-background:new 0 0 948.9 960.7;" xml:space="preserve">
<path d="M859.4,303.4c0,9-3.3,16.5-10,22.5l-350,354l0,0c-6,6-13.3,9-22,9c-8.7,0-16.3-3-23-9l-355-352l0,0c-6.7-6-10-13.5-10-22.5
	s3.2-16.7,9.5-23s13.8-9.5,22.5-9.5s16.3,3.3,23,10l332,329l328-331l0,0c6-6,13.5-9,22.5-9s16.5,3,22.5,9l0,0
	C856.1,286.9,859.4,294.4,859.4,303.4z"/>
</svg>
