<?xml version="1.0" encoding="utf-8"?>
<!-- Generator: Adobe Illustrator 24.3.0, SVG Export Plug-In . SVG Version: 6.00 Build 0)  -->
<svg version="1.1" id="图层_1" xmlns="http://www.w3.org/2000/svg" xmlns:xlink="http://www.w3.org/1999/xlink" x="0px" y="0px"
	 viewBox="0 0 1032.1 1080" style="enable-background:new 0 0 1032.1 1080;" xml:space="preserve">
<path d="M696,155.5L696,155.5c-10.7,0-17.7,3-21,9l0,0l-363,352c-7.3,6.7-11,14.3-11,23s3.7,16.3,11,23l0,0l365,352
	c6,6.7,13.3,10,22,10s16.2-3.2,22.5-9.5s9.5-13.8,9.5-22.5s-3-16-9-22l0,0l-342-331l339-329c6.7-6,10-13.3,10-22s-3-16.3-9-23
	S706,155.5,696,155.5z"/>
</svg>
