<?xml version="1.0" encoding="utf-8"?>
<!-- Generator: Adobe Illustrator 24.3.0, SVG Export Plug-In . SVG Version: 6.00 Build 0)  -->
<svg version="1.1" id="图层_1" xmlns="http://www.w3.org/2000/svg" xmlns:xlink="http://www.w3.org/1999/xlink" x="0px" y="0px"
	 viewBox="0 0 1153.3 1080" style="enable-background:new 0 0 1153.3 1080;" xml:space="preserve">
<path d="M784.7,675c11.3,11.3,11.3,22.7,0,34l-11,11l0,0c-11.3,11.3-22.7,11.3-34,0l-163-163l-163,163l0,0
	c-11.3,11.3-22.7,11.3-34,0l-11-11l0,0c-11.3-11.3-11.3-22.7,0-34l180-180l0,0l0,0l11-11l0,0c4-4,9.7-6,17-6c7.3,0,13,2,17,6l11,17
	v-5l0,0c0,2,0,3.7,0,5L784.7,675L784.7,675z M803.7,152L803.7,152c68,39.3,121.7,93,161,161l0,0c41.3,70,62,145.7,62,227
	s-20.7,157-62,227l0,0c-39.3,68-93,121.7-161,161l0,0c-70,41.3-145.7,62-227,62s-157-20.7-227-62l0,0c-68-39.3-121.7-93-161-161l0,0
	c-41.3-70-62-145.7-62-227s20.7-157,62-227l0,0c39.3-68,93-121.7,161-161l0,0c70-41.3,145.7-62,227-62l0,0
	C658,90,733.7,110.7,803.7,152z M776.7,880L776.7,880c59.3-34,106-80.7,140-140l0,0c36-61.3,54-128,54-200s-18-138.7-54-200l0,0
	c-34-59.3-80.7-106-140-140l0,0c-61.3-36-128-54-200-54s-138.7,18-200,54l0,0c-59.3,34-106,80.7-140,140l0,0c-36,61.3-54,128-54,200
	s18,138.7,54,200l0,0c34,59.3,80.7,106,140,140l0,0c61.3,36,128,54,200,54l0,0C648.7,934,715.3,916,776.7,880z M801.7,343L801.7,343
	v56l0,0l0,0h-450l0,0l0,0v-56l0,0l0,0H801.7L801.7,343z"/>
</svg>
