<?xml version="1.0" encoding="utf-8"?>
<!-- Generator: Adobe Illustrator 24.3.0, SVG Export Plug-In . SVG Version: 6.00 Build 0)  -->
<svg version="1.1" id="图层_1" xmlns="http://www.w3.org/2000/svg" xmlns:xlink="http://www.w3.org/1999/xlink" x="0px" y="0px"
	 viewBox="0 0 1126.1 1080" style="enable-background:new 0 0 1126.1 1080;" xml:space="preserve">
<path d="M562.5,986L562.5,986c-80.7,0-155.7-20.3-225-61l0,0c-67.3-39.3-120.7-92.7-160-160l0,0c-40.7-69.3-61-144.3-61-225
	s20.3-155.7,61-225l0,0c39.3-67.3,92.7-120.7,160-160l0,0c69.3-40.7,144.3-61,225-61s155.7,20.3,225,61l0,0
	c67.3,39.3,120.7,92.7,160,160l0,0c41.3,69.3,62,144.3,62,225s-20.7,155.7-62,225l0,0c-39.3,67.3-92.7,120.7-160,160l0,0
	C718.2,965.7,643.2,986,562.5,986z M562.5,149L562.5,149c-70.7,0-136.3,18-197,54l0,0c-58.7,34.7-105.3,81.3-140,140l0,0
	c-36,60.7-54,126.3-54,197s18,136.3,54,197l0,0c34.7,58.7,81.3,105.3,140,140l0,0c60.7,36,126.3,54,197,54s136.3-18,197-54l0,0
	c58.7-34.7,105.3-81.3,140-140l0,0c36-60.7,54-126.3,54-197s-18-136.3-54-197l0,0c-34.7-58.7-81.3-105.3-140-140l0,0
	C698.9,167,633.2,149,562.5,149z M785.5,568L785.5,568h-379l120,120c5.3,5.3,8,11.8,8,19.5s-2.7,14.2-8,19.5c-5.3,5.3-11.8,8-19.5,8
	s-14.2-2.7-19.5-8l0,0l-168-167c-5.3-5.3-8-11.8-8-19.5s2.7-14.5,8-20.5l0,0l168-167c5.3-5.3,11.8-8,19.5-8s14.2,2.7,19.5,8
	c5.3,5.3,8,11.8,8,19.5s-2.7,14.2-8,19.5l0,0l-120,120h379c8,0,14.7,2.8,20,8.5s8,12.3,8,20s-2.7,14.2-8,19.5S793.5,568,785.5,568z"
	/>
</svg>
