<?xml version="1.0" encoding="utf-8"?>
<!-- Generator: Adobe Illustrator 24.3.0, SVG Export Plug-In . SVG Version: 6.00 Build 0)  -->
<svg version="1.1" id="图层_1" xmlns="http://www.w3.org/2000/svg" xmlns:xlink="http://www.w3.org/1999/xlink" x="0px" y="0px"
	 viewBox="0 0 1080.6 1006.2" style="enable-background:new 0 0 1080.6 1006.2;" xml:space="preserve">
<path d="M96.3,223.6L96.3,223.6c0-23.3,8.2-43.2,24.5-59.5s36.2-24.5,59.5-24.5h718l0,0c23.3,0,43.2,8.2,59.5,24.5
	s24.5,36.2,24.5,59.5v63h-886V223.6z M984.3,782.6L984.3,782.6c0,22.7-8.2,42.3-24.5,59c-16.3,16.7-36.2,25-59.5,25h-720l0,0
	c-23.3,0-43.2-8.3-59.5-25c-16.3-16.7-24.5-36.3-24.5-59v-391h888V782.6z M172.3,656.6v42h207v-42H172.3z M172.3,523.6v42h380v-42
	H172.3z"/>
</svg>
