<?xml version="1.0" encoding="utf-8"?>
<!-- Generator: Adobe Illustrator 24.3.0, SVG Export Plug-In . SVG Version: 6.00 Build 0)  -->
<svg version="1.1" id="图层_1" xmlns="http://www.w3.org/2000/svg" xmlns:xlink="http://www.w3.org/1999/xlink" x="0px" y="0px"
	 viewBox="0 0 1098.8 1006.2" style="enable-background:new 0 0 1098.8 1006.2;" xml:space="preserve">
<path d="M943.4,178.6c14.7,15,22,32.5,22,52.5v619l0,0c0,20-7.3,37.3-22,52s-32.3,22-53,22h-682l0,0c-20.7,0-38.3-7.3-53-22
	s-22-32-22-52v-619l0,0c0-20,7.3-37.5,22-52.5s32.3-22.5,53-22.5h138v-42l0,0c0-8.7,3.3-16.2,10-22.5s14.2-9.5,22.5-9.5
	s15.7,3.2,22,9.5s9.5,13.8,9.5,22.5v42h278v-42l0,0c0-8.7,3.2-16.2,9.5-22.5s13.7-9.5,22-9.5s15.8,3.2,22.5,9.5s10,13.8,10,22.5v42
	h138l0,0C911.1,156.1,928.7,163.6,943.4,178.6z M200.4,223.1c-2,2-3,4.7-3,8v194l0,0c2.7-1.3,6.3-2,11-2h682l0,0c4.7,0,8.3,0.7,11,2
	v-194l0,0c0-3.3-1-6-3-8s-4.7-3-8-3h-138v64l0,0c0,8.7-3.3,16.2-10,22.5s-14.2,9.5-22.5,9.5s-15.7-3.2-22-9.5s-9.5-13.8-9.5-22.5
	v-64h-278v64l0,0c0,8.7-3.2,16.2-9.5,22.5s-13.7,9.5-22,9.5s-15.8-3.2-22.5-9.5s-10-13.8-10-22.5v-64h-138l0,0
	C205.1,220.1,202.4,221.1,200.4,223.1z M898.4,857.1c2-2,3-4.3,3-7v-365l0,0c-2.7,1.3-6.3,2-11,2h-682l0,0c-4.7,0-8.3-0.7-11-2v365
	l0,0c0,2.7,1,5,3,7s4.7,3,8,3h682l0,0C893.7,860.1,896.4,859.1,898.4,857.1z M443.9,624.6c6.3,6.3,9.5,13.8,9.5,22.5
	c0,8.7-3.2,16.2-9.5,22.5s-13.8,9.5-22.5,9.5h-85l0,0c-8.7,0-16.2-3.2-22.5-9.5s-9.5-13.8-9.5-22.5c0-8.7,3.2-16.2,9.5-22.5
	c6.3-6.3,13.8-9.5,22.5-9.5h85l0,0C430.1,615.1,437.6,618.3,443.9,624.6z M784.9,624.6c6.3,6.3,9.5,13.8,9.5,22.5
	c0,8.7-3.2,16.2-9.5,22.5s-13.8,9.5-22.5,9.5h-192l0,0c-8,0-15.3-3.2-22-9.5c-6.7-6.3-10-13.8-10-22.5c0-8.7,3.3-16.2,10-22.5
	c6.7-6.3,14-9.5,22-9.5h192l0,0C771.1,615.1,778.6,618.3,784.9,624.6z"/>
</svg>
