<?xml version="1.0" encoding="utf-8"?>
<!-- Generator: Adobe Illustrator 24.3.0, SVG Export Plug-In . SVG Version: 6.00 Build 0)  -->
<svg version="1.1" id="图层_1" xmlns="http://www.w3.org/2000/svg" xmlns:xlink="http://www.w3.org/1999/xlink" x="0px" y="0px"
	 viewBox="0 0 998.7 1039.5" style="enable-background:new 0 0 998.7 1039.5;" xml:space="preserve">
<path d="M941.4,372.8v411l0,0c0,32.7-11.5,60.5-34.5,83.5s-50.8,34.5-83.5,34.5h-648l0,0c-32.7,0-60.5-11.5-83.5-34.5
	s-34.5-50.8-34.5-83.5v-411l0,0c0-32.7,11.5-60.5,34.5-83.5s50.8-34.5,83.5-34.5h104l26-62l0,0c6.7-14.7,17.7-27.5,33-38.5
	s30.7-16.5,46-16.5h235l0,0c15.3,0,30.7,5.5,46,16.5s26,23.8,32,38.5l24,62h102l0,0c32.7,0,60.7,11.3,84,34l0,0
	C930,312.1,941.4,340.1,941.4,372.8z M596.9,738.8c29.7-17.3,53.2-40.8,70.5-70.5s26-62,26-97s-8.7-67.5-26-97.5s-40.8-53.7-70.5-71
	c-29.7-17.3-62-26-97-26s-67.5,8.7-97.5,26c-30,17.3-53.7,41-71,71s-26,62.5-26,97.5s8.7,67.3,26,97s41,53.2,71,70.5s62.3,26,97,26
	l0,0C534.7,764.8,567.2,756.1,596.9,738.8z M564.9,460.3c19.7,11.7,35.3,27.5,47,47.5s17.5,41.8,17.5,65.5
	c0,23.7-5.8,45.5-17.5,65.5s-27.3,35.7-47,47s-41.5,17-65.5,17s-45.8-5.7-65.5-17s-35.3-27-47-47s-17.5-41.8-17.5-65.5
	c0-23.7,5.8-45.5,17.5-65.5s27.3-35.8,47-47.5s41.5-17.5,65.5-17.5l0,0C523.4,442.8,545.2,448.6,564.9,460.3z"/>
</svg>
