<?xml version="1.0" encoding="utf-8"?>
<!-- Generator: Adobe Illustrator 24.3.0, SVG Export Plug-In . SVG Version: 6.00 Build 0)  -->
<svg version="1.1" id="图层_1" xmlns="http://www.w3.org/2000/svg" xmlns:xlink="http://www.w3.org/1999/xlink" x="0px" y="0px"
	 viewBox="0 0 1244.3 1182" style="enable-background:new 0 0 1244.3 1182;" xml:space="preserve">
<path d="M622.1,941.9c22.8,0,41.8-9.1,57-27.3l444.3-514.9l0,0c12.2-13.7,20.1-29.2,23.9-46.7c3.8-17.5,2.7-34.6-3.4-51.3
	c-6.1-16.7-15.9-30.4-29.6-41c-13.7-10.6-29.6-17.5-47.8-20.5H175.6l0,0c-16.7,3-31.9,10.3-45.6,21.6
	c-13.7,11.4-23.5,25.4-29.6,42.1c-6.1,16.7-7.2,33.8-3.4,51.3c3.8,17.5,11.8,32.3,23.9,44.4l444.3,514.9l0,0
	C580.4,932.8,599.4,941.9,622.1,941.9z"/>
</svg>
