<?xml version="1.0" encoding="utf-8"?>
<!-- Generator: Adobe Illustrator 24.3.0, SVG Export Plug-In . SVG Version: 6.00 Build 0)  -->
<svg version="1.1" id="图层_1" xmlns="http://www.w3.org/2000/svg" xmlns:xlink="http://www.w3.org/1999/xlink" x="0px" y="0px"
	 viewBox="0 0 631.9 630.3" style="enable-background:new 0 0 631.9 630.3;" xml:space="preserve">
<path d="M316,161.1c-10,0-18.3,4-25,12l-195,226l0,0c-5.3,6-8.8,12.8-10.5,20.5s-1.2,15.2,1.5,22.5s7,13.3,13,18c6,4.7,13,7.7,21,9
	h391l0,0c7.3-1.3,14-4.5,20-9.5s10.3-11.2,13-18.5s3.2-14.8,1.5-22.5s-5.2-14.2-10.5-19.5l-195-226l0,0
	C334.3,165.1,326,161.1,316,161.1z"/>
</svg>
