<?xml version="1.0" encoding="utf-8"?>
<!-- Generator: Adobe Illustrator 24.3.0, SVG Export Plug-In . SVG Version: 6.00 Build 0)  -->
<svg version="1.1" id="图层_1" xmlns="http://www.w3.org/2000/svg" xmlns:xlink="http://www.w3.org/1999/xlink" x="0px" y="0px"
	 viewBox="0 0 1020 969.8" style="enable-background:new 0 0 1020 969.8;" xml:space="preserve">
<path d="M787,249.9c-23.3,0-43.3,8.3-60,25s-25,37-25,61v448l0,0c0,23.3,8.3,43.3,25,60s36.7,25,60,25h86l0,0c23.3,0,43.3-8.3,60-25
	s25-36.7,25-60v-448l0,0c0-24-8.3-44.3-25-61s-36.7-25-60-25H787L787,249.9z M467,100.9c-23.3,0-43.3,8.3-60,25s-25,36.7-25,60v598
	l0,0c0,23.3,8.3,43.3,25,60s36.7,25,60,25h86l0,0c23.3,0,43.3-8.3,60-25s25-36.7,25-60v-598l0,0c0-23.3-8.3-43.3-25-60
	s-36.7-25-60-25H467L467,100.9z M147,463.9c-23.3,0-43.3,8.3-60,25s-25,36.7-25,60v235l0,0c0,23.3,8.3,43.3,25,60s36.7,25,60,25h86
	l0,0c23.3,0,43.3-8.3,60-25s25-36.7,25-60v-235l0,0c0-23.3-8.3-43.3-25-60s-36.7-25-60-25H147L147,463.9z M875,313.9
	c5.3,0.7,9.8,3.2,13.5,7.5s5.5,9.2,5.5,14.5v450l0,0c-0.7,5.3-3,9.8-7,13.5c-4,3.7-8.7,5.5-14,5.5h-88l0,0c-5.3-0.7-9.8-3-13.5-7
	s-5.5-8.7-5.5-14v-451l0,0c0.7-5.3,3-9.8,7-13.5s8.7-5.5,14-5.5h86H875L875,313.9z M555,164.9c5.3,0.7,9.8,3,13.5,7s5.5,8.7,5.5,14
	v600l0,0c-0.7,5.3-3,9.8-7,13.5c-4,3.7-8.7,5.5-14,5.5h-88l0,0c-5.3-0.7-9.8-3-13.5-7s-5.5-8.7-5.5-14v-600l0,0
	c0.7-5.3,3-9.8,7-13.5s8.7-5.5,14-5.5h86H555L555,164.9z M235,527.9c5.3,0.7,9.8,3,13.5,7s5.5,8.7,5.5,14v237l0,0
	c-0.7,5.3-3,9.8-7,13.5c-4,3.7-8.7,5.5-14,5.5h-88l0,0c-5.3-0.7-9.8-3-13.5-7c-3.7-4-5.5-8.7-5.5-14v-237l0,0c0.7-6,3-10.7,7-14
	c4-3.3,8.7-5,14-5h86H235L235,527.9z"/>
</svg>
