<?xml version="1.0" encoding="utf-8"?>
<!-- Generator: Adobe Illustrator 24.3.0, SVG Export Plug-In . SVG Version: 6.00 Build 0)  -->
<svg version="1.1" id="图层_1" xmlns="http://www.w3.org/2000/svg" xmlns:xlink="http://www.w3.org/1999/xlink" x="0px" y="0px"
	 viewBox="0 0 1016.9 951.6" style="enable-background:new 0 0 1016.9 951.6;" xml:space="preserve">
<path d="M900.8,624.3c3.3,8.3,3.7,16.8,1,25.5l0,0c-22.7,53.3-54.7,100.3-96,141l0,0c-40.7,39.3-87.2,69.7-139.5,91
	c-52.3,21.3-106.8,32-163.5,32l0,0c-12,0-29-1-51-3l-5-1l0,0c-63.3-8-121.5-29.2-174.5-63.5c-53-34.3-96.7-78-131-131
	S85.2,604.1,75.8,540.8S71,415.6,89.3,355.3s48.3-114.3,90-162s91.8-84.8,150.5-111.5l0,0c8.7-2.7,17.2-2.5,25.5,0.5s14,8.8,17,17.5
	s3,17,0,25s-8.8,13.7-17.5,17l0,0c-48.7,22-90.8,53.2-126.5,93.5s-61.3,86.2-77,137.5s-19.8,104-12.5,158s25.7,103.5,55,148.5
	s66.7,82,112,111s95.2,47,149.5,54s107.2,2.2,158.5-14.5c51.3-16.7,96.8-43,136.5-79s70.2-79,91.5-129l0,0c4-8.7,10-14.5,18-17.5
	s16-2.8,24,0.5l0,0C891.8,609.5,897.5,616,900.8,624.3z M911.3,320.8c23,56,34.5,114.3,34.5,175l0,0c0,8.7-3.2,16.2-9.5,22.5
	c-6.3,6.3-13.8,9.5-22.5,9.5h-426l0,0c-8.7,0-16.2-3.2-22.5-9.5c-6.3-6.3-9.5-13.8-9.5-22.5v-426l0,0c0-8.7,3.2-16.2,9.5-22.5
	s13.8-9.5,22.5-9.5l0,0c60.7,0,119,11.5,175,34.5s105.7,56.2,149,99.5l0,0C855.2,215.1,888.3,264.8,911.3,320.8z M881.8,465.8
	L881.8,465.8c-4-46.7-15.8-91.2-35.5-133.5s-46.2-80.2-79.5-113.5l0,0c-34-34-72-60.8-114-80.5s-86.3-31.2-133-34.5v360v2H881.8z"/>
</svg>
