<?xml version="1.0" encoding="utf-8"?>
<!-- Generator: Adobe Illustrator 24.3.0, SVG Export Plug-In . SVG Version: 6.00 Build 0)  -->
<svg version="1.1" id="图层_1" xmlns="http://www.w3.org/2000/svg" xmlns:xlink="http://www.w3.org/1999/xlink" x="0px" y="0px"
	 viewBox="0 0 916.9 869.8" style="enable-background:new 0 0 916.9 869.8;" xml:space="preserve">
<path d="M843.4,194.6c0,9-3,16.5-9,22.5l-449,479l0,0c-1.3,1.3-3.3,2.7-6,4l-5,3l0,0c-4,2-8,3-12,3s-8-0.7-12-2l-5-3l0,0
	c-2-1.3-3.7-2.7-5-4l-257-253l0,0c-6.7-6-10-13.5-10-22.5s3.2-16.7,9.5-23s13.8-9.5,22.5-9.5s16.3,3,23,9l233,230l427-454l0,0
	c6-6.7,13.3-10.2,22-10.5s16.3,2.5,23,8.5l0,0C840.1,178.1,843.4,185.6,843.4,194.6z"/>
</svg>
