<?xml version="1.0" encoding="utf-8"?>
<!-- Generator: Adobe Illustrator 24.3.0, SVG Export Plug-In . SVG Version: 6.00 Build 0)  -->
<svg version="1.1" id="图层_1" xmlns="http://www.w3.org/2000/svg" xmlns:xlink="http://www.w3.org/1999/xlink" x="0px" y="0px"
	 viewBox="0 0 1074.5 1048.6" style="enable-background:new 0 0 1074.5 1048.6;" xml:space="preserve">
<path d="M720.3,377.3L720.3,377.3c6.7-6,14.5-8.7,23.5-8s16.5,4.3,22.5,11s8.7,14.5,8,23.5s-4.3,16.5-11,22.5l-293,256l0,0
	c-8,7.3-17.5,10.8-28.5,10.5s-20.5-4.5-28.5-12.5l-104-112l0,0c-6-6.7-8.8-14.3-8.5-23c0.3-8.7,3.7-16.2,10-22.5
	c6.3-6.3,14-9.3,23-9c9,0.3,16.5,3.5,22.5,9.5l89,95L720.3,377.3z M314.3,905.3L314.3,905.3c-66.7-38.7-119.3-91.3-158-158l0,0
	c-40.7-68.7-61-143-61-223s20.3-154.3,61-223l0,0c38.7-66.7,91.3-119.3,158-158l0,0c68.7-40.7,143-61,223-61s154.3,20.3,223,61l0,0
	c66.7,38.7,119.3,91.3,158,158l0,0c40.7,68.7,61,143,61,223s-20.3,154.3-61,223l0,0c-38.7,66.7-91.3,119.3-158,158l0,0
	c-68.7,40.7-143,61-223,61l0,0C457.3,966.3,382.9,946,314.3,905.3z M727.3,849.3L727.3,849.3c56.7-33.3,101.7-78.3,135-135l0,0
	c34-58.7,51-122,51-190s-17-131.3-51-190l0,0c-33.3-56.7-78.3-101.7-135-135l0,0c-58.7-34-121.8-51-189.5-51s-130.7,16.7-189,50
	s-104.2,79.2-137.5,137.5s-50,121.2-50,188.5s16.7,130.2,50,188.5S290.4,817,348.8,850.3s121.2,50,188.5,50l0,0
	C605.3,900.3,668.6,883.3,727.3,849.3z"/>
</svg>
