<?xml version="1.0" encoding="utf-8"?>
<!-- Generator: Adobe Illustrator 24.3.0, SVG Export Plug-In . SVG Version: 6.00 Build 0)  -->
<svg version="1.1" id="图层_1" xmlns="http://www.w3.org/2000/svg" xmlns:xlink="http://www.w3.org/1999/xlink" x="0px" y="0px"
	 viewBox="0 0 1021.5 1015.3" style="enable-background:new 0 0 1021.5 1015.3;" xml:space="preserve">
<path d="M289.7,129.6L289.7,129.6c-65.3,39.3-117.7,91.7-157,157l0,0c-39.3,68-59,141.7-59,221s19.7,153,59,221l0,0
	c39.3,65.3,91.7,117.7,157,157l0,0c68,39.3,141.7,59,221,59s153-19.7,221-59l0,0c65.3-39.3,117.7-91.7,157-157l0,0
	c39.3-68,59-141.7,59-221s-19.7-153-59-221l0,0c-39.3-65.3-91.7-117.7-157-157l0,0c-68-39.3-141.7-59-221-59l0,0
	C431.4,70.6,357.7,90.3,289.7,129.6z M532.2,249.1c6.3,5.7,10.5,12.8,12.5,21.5v222l152,70l0,0c7.3,4.7,12.7,10.8,16,18.5
	c3.3,7.7,3.7,15.2,1,22.5l-2,2l0,0c-4.7,8-10.8,13.7-18.5,17c-7.7,3.3-15.2,3.3-22.5,0l-2-2l-171-81l0,0c-10-4-16.3-12.7-19-26v-241
	l0,0c0-8,3.2-15.3,9.5-22c6.3-6.7,13.8-10,22.5-10l0,0C518.7,240.6,525.9,243.5,532.2,249.1z"/>
</svg>
