<?xml version="1.0" encoding="utf-8"?>
<!-- Generator: Adobe Illustrator 24.3.0, SVG Export Plug-In . SVG Version: 6.00 Build 0)  -->
<svg version="1.1" id="图层_1" xmlns="http://www.w3.org/2000/svg" xmlns:xlink="http://www.w3.org/1999/xlink" x="0px" y="0px"
	 viewBox="0 0 1053.3 1038" style="enable-background:new 0 0 1053.3 1038;" xml:space="preserve">
<path d="M357.7,384l117,117l-117,118c-4.7,4-7.8,8.8-9.5,14.5c-1.7,5.7-1.7,11.3,0,17c1.7,5.7,4.5,10.7,8.5,15s9,7.2,15,8.5
	s11.8,1.2,17.5-0.5s10.5-4.5,14.5-8.5l0,0l117-117l118,117c6,6,13.5,9,22.5,9s16.7-3.2,23-9.5s9.5-14,9.5-23s-3-16.5-9-22.5l0,0
	l-117-118l117-117c6-6.7,9-14.5,9-23.5s-3.2-16.7-9.5-23c-6.3-6.3-14-9.5-23-9.5s-16.5,3.3-22.5,10l0,0l-118,117l-117-117
	c-6.7-6.7-14.5-10-23.5-10s-16.7,3.2-23,9.5c-6.3,6.3-9.5,14-9.5,23S351,377.3,357.7,384L357.7,384z M526.7,77L526.7,77
	c80,0,154.3,20.3,223,61l0,0c66.7,38.7,119.3,91.3,158,158l0,0c40.7,68.7,61,143,61,223s-20.3,154.3-61,223l0,0
	c-38.7,66.7-91.3,119.3-158,158l0,0c-68.7,40.7-143,61-223,61s-154.3-20.3-223-61l0,0c-66.7-38.7-119.3-91.3-158-158l0,0
	c-40.7-68.7-61-143-61-223s20.3-154.3,61-223l0,0c38.7-66.7,91.3-119.3,158-158l0,0C372.3,97.3,446.7,77,526.7,77z M526.7,143
	L526.7,143c-67.3,0-130.2,16.7-188.5,50S234,272.2,200.7,330.5s-50,121.2-50,188.5s16.7,130.2,50,188.5S279.8,811.7,338.2,845
	s121.3,50,189,50s130.8-17,189.5-51l0,0c56.7-33.3,101.7-78.3,135-135l0,0c34-58.7,51-122,51-190s-17-131.3-51-190l0,0
	c-33.3-56.7-78.3-101.7-135-135l0,0C658,160,594.7,143,526.7,143z"/>
</svg>
