<?xml version="1.0" encoding="utf-8"?>
<!-- Generator: Adobe Illustrator 24.3.0, SVG Export Plug-In . SVG Version: 6.00 Build 0)  -->
<svg version="1.1" id="图层_1" xmlns="http://www.w3.org/2000/svg" xmlns:xlink="http://www.w3.org/1999/xlink" x="0px" y="0px"
	 viewBox="0 0 898.7 897.1" style="enable-background:new 0 0 898.7 897.1;" xml:space="preserve">
<path d="M760.3,184l-266,266l266,264c6,6,9,13.3,9,22s-3.2,16.2-9.5,22.5S746,768,737.3,768s-16.3-3-23-9l0,0l-265-264l-263,264
	c-6,6-13.5,9-22.5,9s-16.7-3-23-9s-9.5-13.5-9.5-22.5s3.3-16.5,10-22.5l0,0l263-264l-265-264c-6.7-6-10-13.5-10-22.5
	s3.2-16.5,9.5-22.5s13.8-9,22.5-9s16.3,3,23,9l0,0l265,264l265-267c6.7-6,14.3-9,23-9s16.2,3.2,22.5,9.5c6.3,6.3,9.5,13.8,9.5,22.5
	C769.3,169.7,766.3,177.4,760.3,184L760.3,184z"/>
</svg>
