<?xml version="1.0" encoding="utf-8"?>
<!-- Generator: Adobe Illustrator 24.3.0, SVG Export Plug-In . SVG Version: 6.00 Build 0)  -->
<svg version="1.1" id="图层_1" xmlns="http://www.w3.org/2000/svg" xmlns:xlink="http://www.w3.org/1999/xlink" x="0px" y="0px"
	 viewBox="0 0 980.5 992.5" style="enable-background:new 0 0 980.5 992.5;" xml:space="preserve">
<path d="M857.3,387.3c25.3,21.3,45.2,47.2,59.5,77.5s21.5,62.2,21.5,95.5l0,0c0,40.7-10,78.2-30,112.5s-47.2,61.5-81.5,81.5
	s-71.8,30-112.5,30h-32v-64h32l0,0c29.3,0,56.2-7.2,80.5-21.5s43.7-33.7,58-58s21.5-51.2,21.5-80.5c0-29.3-7.2-56.2-21.5-80.5
	s-33.7-43.7-58-58s-51.2-21.5-80.5-21.5l0,0c0-40.7-10-78.2-30-112.5s-47.2-61.5-81.5-81.5s-71.8-30-112.5-30s-78.2,10-112.5,30
	s-61.5,47.2-81.5,81.5s-30,71.8-30,112.5l0,0c-29.3,0-56.2,7.2-80.5,21.5s-43.7,33.7-58,58s-21.5,51.2-21.5,80.5
	c0,29.3,7.2,56.2,21.5,80.5s33.7,43.7,58,58s51.2,21.5,80.5,21.5h32v64h-32l0,0c-40.7,0-78.2-10-112.5-30s-61.5-47.2-81.5-81.5
	s-30-71.8-30-112.5l0,0c0-33.3,7.2-65.2,21.5-95.5s34.2-56.2,59.5-77.5c25.3-21.3,53.7-36.3,85-45l0,0c8.7-43.3,26.3-82.5,53-117.5
	s59.7-62.2,99-81.5l0,0c40.7-20.7,84-31,130-31s89.3,10.3,130,31l0,0c39.3,19.3,72.3,46.5,99,81.5s44.3,74.2,53,117.5l0,0
	C803.6,350.9,831.9,365.9,857.3,387.3z M612.3,566.3c6,6.7,9,14.3,9,23c0,8.7-3.2,16.2-9.5,22.5c-6.3,6.3-14.3,9.5-24,9.5
	s-17.5-3.3-23.5-10l-39-35v272l0,0c0,8.7-3,16.2-9,22.5s-13.3,9.5-22,9.5c-8.7,0-16.3-3-23-9s-10-13.7-10-23v-272l-38,35l0,0
	c-6.7,6.7-14.8,10-24.5,10s-17.7-3.2-24-9.5c-6.3-6.3-9.5-13.8-9.5-22.5c0-8.7,3.3-16.3,10-23l96-92l0,0c4-4.7,7-7,9-7l0,0
	c12-6,25-3.7,39,7L612.3,566.3L612.3,566.3z"/>
</svg>
