<?xml version="1.0" encoding="utf-8"?>
<!-- Generator: Adobe Illustrator 24.3.0, SVG Export Plug-In . SVG Version: 6.00 Build 0)  -->
<svg version="1.1" id="图层_1" xmlns="http://www.w3.org/2000/svg" xmlns:xlink="http://www.w3.org/1999/xlink" x="0px" y="0px"
	 viewBox="0 0 1007.8 1001.6" style="enable-background:new 0 0 1007.8 1001.6;" xml:space="preserve">
<path d="M870.9,391.9c25.3,21.3,45.2,47.2,59.5,77.5s21.5,62.2,21.5,95.5l0,0c0,40.7-10,78.2-30,112.5s-47.2,61.5-81.5,81.5
	s-71.8,30-112.5,30h-32v-64h32l0,0c29.3,0,56.2-7.2,80.5-21.5s43.7-33.7,58-58c14.3-24.3,21.5-51.2,21.5-80.5
	c0-29.3-7.2-56.2-21.5-80.5s-33.7-43.7-58-58s-51.2-21.5-80.5-21.5l0,0c0-40.7-10-78.2-30-112.5s-47.2-61.5-81.5-81.5
	s-71.8-30-112.5-30s-78.2,10-112.5,30s-61.5,47.2-81.5,81.5s-30,71.8-30,112.5l0,0c-29.3,0-56.2,7.2-80.5,21.5s-43.7,33.7-58,58
	s-21.5,51.2-21.5,80.5c0,29.3,7.2,56.2,21.5,80.5c14.3,24.3,33.7,43.7,58,58s51.2,21.5,80.5,21.5h32v64h-32l0,0
	c-40.7,0-78.2-10-112.5-30s-61.5-47.2-81.5-81.5s-30-71.8-30-112.5l0,0c0-33.3,7.2-65.2,21.5-95.5s34.2-56.2,59.5-77.5
	c25.3-21.3,53.7-36.3,85-45l0,0c8.7-43.3,26.3-82.5,53-117.5s59.7-62.2,99-81.5l0,0c40.7-20.7,84-31,130-31s89.3,10.3,130,31l0,0
	c39.3,19.3,72.3,46.5,99,81.5s44.3,74.2,53,117.5l0,0C817.2,355.5,845.6,370.5,870.9,391.9z M603.9,727.9c9.3,0,16.7,3.3,22,10l0,0
	c6,6,9,13.3,9,22c0,8.7-3,16.3-9,23l-93,92l0,0c-5.3,5.3-11,8.5-17,9.5c-6,1-12,0.2-18-2.5l0,0c-2.7,0-6-2.3-10-7l-96-92l0,0
	c-6.7-6.7-10-14.3-10-23c0-8.7,3.3-16.2,10-22.5s14.7-9.5,24-9.5s17.3,3.3,24,10l38,35v-272l0,0c0-8.7,3.2-16.2,9.5-22.5
	s13.8-9.5,22.5-9.5s16.2,3,22.5,9s9.5,13.7,9.5,23v272l39-35l0,0C586.9,731.2,594.6,727.9,603.9,727.9z"/>
</svg>
