<?xml version="1.0" encoding="utf-8"?>
<!-- Generator: Adobe Illustrator 24.3.0, SVG Export Plug-In . SVG Version: 6.00 Build 0)  -->
<svg version="1.1" id="图层_1" xmlns="http://www.w3.org/2000/svg" xmlns:xlink="http://www.w3.org/1999/xlink" x="0px" y="0px"
	 viewBox="0 0 1066.9 1042.6" style="enable-background:new 0 0 1066.9 1042.6;" xml:space="preserve">
<path d="M928.5,125.8c16,9.7,28.8,22.8,38.5,39.5s14.5,35,14.5,55v489l0,0c0,20-4.8,38.3-14.5,55c-9.7,16.7-22.5,30-38.5,40
	s-33.7,15-53,15h-252l-110,113l-111-113h-211l0,0c-19.3,0-37-5-53-15s-28.8-23.3-38.5-40c-9.7-16.7-14.5-35-14.5-55v-489l0,0
	c0-20,4.8-38.3,14.5-55s22.5-30,38.5-40s33.7-15,53-15h684l0,0C894.8,111,912.5,116.1,928.5,125.8z M364,493.8
	c9.7-9.7,14.5-21.5,14.5-35.5s-4.8-25.8-14.5-35.5s-21.5-14.5-35.5-14.5s-25.8,4.8-35.5,14.5s-14.5,21.5-14.5,35.5
	s4.8,25.8,14.5,35.5s21.5,14.5,35.5,14.5l0,0C342.5,508.3,354.3,503.5,364,493.8z M569,493.8c9.7-9.7,14.5-21.5,14.5-35.5
	s-4.8-25.8-14.5-35.5s-21.5-14.5-35.5-14.5s-25.8,4.8-35.5,14.5s-14.5,21.5-14.5,35.5s4.8,25.8,14.5,35.5s21.5,14.5,35.5,14.5l0,0
	C547.5,508.3,559.3,503.5,569,493.8z M774,493.8c9.7-9.7,14.5-21.5,14.5-35.5s-4.8-25.8-14.5-35.5s-21.5-14.5-35.5-14.5
	s-25.8,4.8-35.5,14.5s-14.5,21.5-14.5,35.5s4.8,25.8,14.5,35.5s21.5,14.5,35.5,14.5l0,0C752.5,508.3,764.3,503.5,774,493.8z"/>
</svg>
