<?xml version="1.0" encoding="utf-8"?>
<!-- Generator: Adobe Illustrator 24.3.0, SVG Export Plug-In . SVG Version: 6.00 Build 0)  -->
<svg version="1.1" id="图层_1" xmlns="http://www.w3.org/2000/svg" xmlns:xlink="http://www.w3.org/1999/xlink" x="0px" y="0px"
	 viewBox="0 0 960 975.9" style="enable-background:new 0 0 960 975.9;" xml:space="preserve">
<path d="M870,262.9L870,262.9h-90v420c0,25.3-8.7,46.7-26,64s-38.7,26-64,26l0,0H240v120c0,9.3-2.7,16.7-8,22s-12.5,8-21.5,8
	s-16.3-2.7-22-8s-8.5-12.7-8.5-22l0,0v-120H90c-8.7,0-15.8-2.7-21.5-8S60,752.4,60,743.4s2.8-16.3,8.5-22s12.8-8.5,21.5-8.5l0,0h90
	v-420c0-25.3,8.7-46.7,26-64s38.7-26,64-26l0,0h450v-120c0-8.7,2.8-15.8,8.5-21.5s13-8.5,22-8.5s16.2,2.8,21.5,8.5s8,12.8,8,21.5
	l0,0v120h90c9.3,0,16.7,2.8,22,8.5c5.3,5.7,8,13,8,22s-2.7,16.2-8,21.5S879.3,262.9,870,262.9z M720,262.9H270
	c-8.7,0-15.8,2.8-21.5,8.5c-5.7,5.7-8.5,12.8-8.5,21.5l0,0v420h450c9.3,0,16.7-2.7,22-8s8-12.7,8-22l0,0V262.9z"/>
</svg>
