<?xml version="1.0" encoding="utf-8"?>
<!-- Generator: Adobe Illustrator 24.3.0, SVG Export Plug-In . SVG Version: 6.00 Build 0)  -->
<svg version="1.1" id="图层_1" xmlns="http://www.w3.org/2000/svg" xmlns:xlink="http://www.w3.org/1999/xlink" x="0px" y="0px"
	 viewBox="0 0 1020 1018.3" style="enable-background:new 0 0 1020 1018.3;" xml:space="preserve">
<path d="M289,131.2L289,131.2c-65.3,39.3-117.7,91.7-157,157l0,0c-39.3,68-59,141.7-59,221s19.7,153,59,221l0,0
	c39.3,65.3,91.7,117.7,157,157l0,0c68,39.3,141.7,59,221,59s153-19.7,221-59l0,0c65.3-39.3,117.7-91.7,157-157l0,0
	c39.3-68,59-141.7,59-221s-19.7-153-59-221l0,0c-39.3-65.3-91.7-117.7-157-157l0,0c-68-39.3-141.7-59-221-59l0,0
	C430.6,72.2,357,91.8,289,131.2z M721,701.2L721,701.2c5.3,6.7,7.7,14.5,7,23.5s-4.3,16.2-11,21.5s-14.5,7.5-23.5,6.5
	s-16.2-4.5-21.5-10.5l0,0c-46-57.3-100-86-162-86s-116,28.7-162,86l0,0c-5.3,6-12.5,9.5-21.5,10.5s-16.8-1.2-23.5-6.5
	s-10.3-12.5-11-21.5s1.7-16.8,7-23.5l0,0c60-71.3,130.3-107,211-107l0,0C590.6,594.2,661,629.8,721,701.2z M390,371.2
	c8,7.3,12.3,17,13,29v66l0,0c0,12-4.2,22.2-12.5,30.5s-18.2,12.5-29.5,12.5s-21-4-29-12s-12.7-17.7-14-29v-66l0,0
	c0-11.3,4.2-21.2,12.5-29.5s18.5-12.5,30.5-12.5l0,0C372.3,360.2,382,363.8,390,371.2z M688.5,371.2c7.7,7.3,12.2,17,13.5,29v66l0,0
	c0,12-4.2,22.2-12.5,30.5s-18.3,12.5-30,12.5s-21.5-4-29.5-12s-12.3-17.7-13-29v-66l0,0c0-11.3,4.2-21.2,12.5-29.5
	s18.2-12.5,29.5-12.5l0,0C671,360.2,680.8,363.8,688.5,371.2z"/>
</svg>
