<?xml version="1.0" encoding="utf-8"?>
<!-- Generator: Adobe Illustrator 24.3.0, SVG Export Plug-In . SVG Version: 6.00 Build 0)  -->
<svg version="1.1" id="图层_1" xmlns="http://www.w3.org/2000/svg" xmlns:xlink="http://www.w3.org/1999/xlink" x="0px" y="0px"
	 viewBox="0 0 1056.3 1018.3" style="enable-background:new 0 0 1056.3 1018.3;" xml:space="preserve">
<path d="M305.2,890.2L305.2,890.2c-66.7-38.7-119.3-91.3-158-158l0,0c-40.7-68.7-61-143-61-223s20.3-154.3,61-223l0,0
	c38.7-66.7,91.3-119.3,158-158l0,0c68.7-40.7,143-61,223-61s154.3,20.3,223,61l0,0c66.7,38.7,119.3,91.3,158,158l0,0
	c40.7,68.7,61,143,61,223s-20.3,154.3-61,223l0,0c-38.7,66.7-91.3,119.3-158,158l0,0c-68.7,40.7-143,61-223,61l0,0
	C448.2,951.2,373.8,930.8,305.2,890.2z M718.2,834.2L718.2,834.2c56.7-33.3,101.7-78.3,135-135l0,0c34-58.7,51-122,51-190
	s-17-131.3-51-190l0,0c-33.3-56.7-78.3-101.7-135-135l0,0c-58.7-34-121.8-51-189.5-51s-130.7,16.7-189,50s-104.2,79.2-137.5,137.5
	s-50,121.2-50,188.5s16.7,130.2,50,188.5s79.2,104.2,137.5,137.5s121.2,50,188.5,50l0,0C596.2,885.2,659.5,868.2,718.2,834.2z
	 M755.7,711.7c1.7,5.7,1.7,11.3,0,17s-4.5,10.7-8.5,15s-8.8,7.2-14.5,8.5s-11.5,1.2-17.5-0.5s-11-4.5-15-8.5l0,0
	c-31.3-32-68-53.7-110-65s-83.8-11.8-125.5-1.5s-77.8,30.8-108.5,61.5l0,0c-6.7,6-14.5,9-23.5,9s-16.7-3.2-23-9.5s-9.5-14-9.5-23
	s3-16.8,9-23.5l0,0c39.3-38.7,86-64.7,140-78l0,0c52-13.3,104.3-13,157,1l0,0c54,15.3,101,43,141,83l0,0
	C751.2,701.2,754,706,755.7,711.7z M375.2,431.2L375.2,431.2z M330.2,405.7c4.7-7.7,11-13.8,19-18.5s16.5-7,25.5-7s17.5,2.3,25.5,7
	s14.3,10.8,19,18.5s7,16.2,7,25.5s-2.3,17.8-7,25.5s-11,13.8-19,18.5s-16.5,7-25.5,7s-17.5-2.3-25.5-7s-14.3-10.8-19-18.5
	s-7-16.2-7-25.5l0,0C323.2,421.8,325.5,413.3,330.2,405.7z M681.2,431.2L681.2,431.2z M637.2,405.7c4.7-7.7,11-13.8,19-18.5
	s16.5-7,25.5-7s17.5,2.3,25.5,7s14.3,10.8,19,18.5s7,16.2,7,25.5s-2.3,17.8-7,25.5s-11,13.8-19,18.5s-16.5,7-25.5,7
	s-17.5-2.3-25.5-7s-14.3-10.8-19-18.5s-7-16.2-7-25.5l0,0C630.2,421.8,632.5,413.3,637.2,405.7z"/>
</svg>
