<?xml version="1.0" encoding="utf-8"?>
<!-- Generator: Adobe Illustrator 24.3.0, SVG Export Plug-In . SVG Version: 6.00 Build 0)  -->
<svg version="1.1" id="图层_1" xmlns="http://www.w3.org/2000/svg" xmlns:xlink="http://www.w3.org/1999/xlink" x="0px" y="0px"
	 viewBox="0 0 1026 1051.7" style="enable-background:new 0 0 1026 1051.7;" xml:space="preserve">
<path d="M910.5,471.3c12.3,13.3,18.5,29,18.5,47v171l0,0c0,20-7,37.2-21,51.5c-14,14.3-31.3,21.8-52,22.5l0,0c-10.7,46-33,83-67,111
	l0,0c-42.7,35.3-102,55.3-178,60l0,0c-5.3,10.7-13,19-23,25s-20.7,9-32,9l0,0c-18.7,0-34-6.2-46-18.5c-12-12.3-18-27.5-18-45.5
	s6-33.2,18-45.5c12-12.3,27.3-18.5,46-18.5l0,0c22.7,0,41,10.7,55,32l0,0c54.7-4,97.3-16.7,128-38l0,0c24-17.3,41-40.3,51-69h-21
	l0,0c-20,0-37.5-7.3-52.5-22c-15-14.7-22.5-32-22.5-52v-171l0,0c0-20,7.5-37.5,22.5-52.5s32.5-22.5,52.5-22.5h32v-10l0,0
	c0-52-13.3-100.3-40-145l0,0c-25.3-43.3-59.7-78-103-104l0,0c-44.7-26-93-39-145-39s-100.3,13-145,39l0,0
	c-43.3,26-77.7,60.7-103,104l0,0c-26.7,44.7-40,93-40,145v10h32l0,0c20,0,37.5,7.5,52.5,22.5s22.5,32.5,22.5,52.5v171l0,0
	c0,20-7.5,37.3-22.5,52c-15,14.7-32.5,22-52.5,22h-85l0,0c-20.7,0-38.3-7.3-53-22c-14.7-14.7-22-32-22-52v-171l0,0
	c0-18,6.2-34,18.5-48s27.5-22.3,45.5-25v-12l0,0c0-64,16-123.3,48-178l0,0c31.3-53.3,73.3-95.3,126-126l0,0c55.3-32,114.7-48,178-48
	s122.7,16,178,48l0,0c52.7,30.7,94.7,72.7,126,126l0,0c32,54.7,48,114,48,178v12l0,0C883,450,898.2,458,910.5,471.3z M265,512.3
	c-2-2-4.7-3-8-3h-85l0,0c-3.3,0-6,1-8,3c-2,2-3,4.7-3,8v171l0,0c0,2.7,1,5,3,7s4.7,3,8,3h85l0,0c3.3,0,6-1,8-3s3-4.3,3-7v-171l0,0
	C268,517,267,514.3,265,512.3z M865,520.3c0-3.3-1-6-3-8c-2-2-4.7-3-8-3h-85l0,0c-3.3,0-6,1-8,3c-2,2-3,4.7-3,8v171l0,0
	c0,2.7,1,5,3,7s4.7,3,8,3h85l0,0c3.3,0,6-1,8-3s3-4.3,3-7V520.3L865,520.3z"/>
</svg>
