<?xml version="1.0" encoding="utf-8"?>
<!-- Generator: Adobe Illustrator 24.3.0, SVG Export Plug-In . SVG Version: 6.00 Build 0)  -->
<svg version="1.1" id="图层_1" xmlns="http://www.w3.org/2000/svg" xmlns:xlink="http://www.w3.org/1999/xlink" x="0px" y="0px"
	 viewBox="0 0 1066.9 1080" style="enable-background:new 0 0 1066.9 1080;" xml:space="preserve">
<path d="M424.5,655L424.5,655c-6,6.7-13.3,10-22,10l0,0c-3.3,0-7.2-0.8-11.5-2.5s-8.2-4.2-11.5-7.5l-316-317l0,0
	c-6.7-6-10-13.3-10-22s3.2-16.2,9.5-22.5s13.8-9.5,22.5-9.5s16,3.3,22,10l295,294l205-205l0,0c6-6,13.3-9,22-9l0,0
	c3.3,0,7.2,0.8,11.5,2.5s7.8,3.8,10.5,6.5l298,298V508l0,0c0-9.3,3-17,9-23s13.7-9,23-9s17,3,23,9s9,13.7,9,23v224l0,0
	c0,17.3-6.3,32.3-19,45s-27.7,19-45,19h-224l0,0c-9.3,0-17-3-23-9s-9-13.7-9-23s3-17,9-23s13.7-9,23-9h182l-278-282L424.5,655z"/>
</svg>
