<?xml version="1.0" encoding="utf-8"?>
<!-- Generator: Adobe Illustrator 24.3.0, SVG Export Plug-In . SVG Version: 6.00 Build 0)  -->
<svg version="1.1" id="图层_1" xmlns="http://www.w3.org/2000/svg" xmlns:xlink="http://www.w3.org/1999/xlink" x="0px" y="0px"
	 viewBox="0 0 960 981.9" style="enable-background:new 0 0 960 981.9;" xml:space="preserve">
<path d="M480,54L480,54c-79.3,0-153,19.7-221,59l0,0c-65.3,39.3-117.7,91.7-157,157l0,0c-39.3,68-59,141.7-59,221s19.7,153,59,221
	l0,0c39.3,65.3,91.7,117.7,157,157l0,0c68,39.3,141.7,59,221,59s153-19.7,221-59l0,0c65.3-39.3,117.7-91.7,157-157l0,0
	c39.3-68,59-141.7,59-221s-19.7-153-59-221l0,0c-39.3-65.3-91.7-117.7-157-157l0,0C633,73.6,559.3,54,480,54z M329,346L329,346
	c5.3-5.3,12.2-8.3,20.5-9c8.3-0.7,15.5,1.7,21.5,7l0,0l107,104l104-104c6.7-5.3,14.2-7.7,22.5-7c8.3,0.7,15.5,4,21.5,10
	s9,13.2,9,21.5c0,8.3-3.3,15.8-10,22.5l0,0L523,493l104,105c5.3,6,7.7,13.2,7,21.5c-0.7,8.3-3.7,15.3-9,21s-12.2,8.7-20.5,9
	s-15.8-2.2-22.5-7.5l0,0L478,538L373,642c-6,5.3-13.2,7.8-21.5,7.5S336,646,330,640s-9-13.3-9-22s3.3-16,10-22l0,0l102-103L329,389
	c-5.3-6.7-8-14.2-8-22.5C321,358.1,323.7,351.3,329,346z"/>
</svg>
