<?xml version="1.0" encoding="utf-8"?>
<!-- Generator: Adobe Illustrator 24.3.0, SVG Export Plug-In . SVG Version: 6.00 Build 0)  -->
<svg version="1.1" id="图层_1" xmlns="http://www.w3.org/2000/svg" xmlns:xlink="http://www.w3.org/1999/xlink" x="0px" y="0px"
	 viewBox="0 0 1032.1 994.1" style="enable-background:new 0 0 1032.1 994.1;" xml:space="preserve">
<path d="M870.5,97.5c17.3,17.3,26,38.3,26,63v672l0,0c0,24.7-8.7,45.8-26,63.5c-17.3,17.7-38.3,26.5-63,26.5h-583l0,0
	c-24.7,0-45.7-8.8-63-26.5c-17.3-17.7-26-38.8-26-63.5v-672l0,0c0-24.7,8.7-45.7,26-63s38.3-26,63-26h583l0,0
	C832.2,71.5,853.2,80.2,870.5,97.5z M273.5,294.5c-4,4-6,9.5-6,16.5s2,12.5,6,16.5s9.3,6,16,6h233l0,0c6.7,0,12.2-2,16.5-6
	s6.5-9.5,6.5-16.5s-2.2-12.5-6.5-16.5s-9.8-6-16.5-6h-233l0,0C282.9,288.5,277.5,290.5,273.5,294.5z M751.5,676.5c4-4,6-9.3,6-16
	c0-6.7-2-12-6-16s-9.3-6-16-6h-446l0,0c-6.7,0-12,2-16,6s-6,9.3-6,16c0,6.7,2,12,6,16s9.3,6,16,6h446l0,0
	C742.2,682.5,747.5,680.5,751.5,676.5z M759.5,502c4.7-4.3,7-9.8,7-16.5s-2-12-6-16s-9.3-6-16-6h-455l0,0c-6.7,0-12,2-16,6
	s-6,9.3-6,16s2,12.2,6,16.5s9.3,6.5,16,6.5h453l0,0C749.2,508.5,754.9,506.4,759.5,502z"/>
</svg>
