<?xml version="1.0" encoding="utf-8"?>
<!-- Generator: Adobe Illustrator 24.3.0, SVG Export Plug-In . SVG Version: 6.00 Build 0)  -->
<svg version="1.1" id="图层_1" xmlns="http://www.w3.org/2000/svg" xmlns:xlink="http://www.w3.org/1999/xlink" x="0px" y="0px"
	 viewBox="0 0 1050.3 1036.5" style="enable-background:new 0 0 1050.3 1036.5;" xml:space="preserve">
<path d="M910.1,496.3c6.3,6.7,9.5,14,9.5,22v320l0,0c0,20.7-7.3,38.3-22,53s-32,22-52,22h-640l0,0c-20.7,0-38.3-7.3-53-22
	c-14.7-14.7-22-32.3-22-53v-640l0,0c0-20,7.3-37.3,22-52c14.7-14.7,32.3-22,53-22h320l0,0c8,0,15.3,3.2,22,9.5
	c6.7,6.3,10,13.7,10,22s-3.3,15.8-10,22.5c-6.7,6.7-14,10-22,10h-320l0,0c-3.3,0-6,1-8,3s-3,4.3-3,7v640l0,0c0,3.3,1,6,3,8
	s4.7,3,8,3h640l0,0c2.7,0,5-1,7-3s3-4.7,3-8v-320l0,0c0-8,3.3-15.3,10-22s14-10,22-10l0,0C896.3,486.3,903.8,489.6,910.1,496.3z
	 M448.6,454.3l301-303l0,0c18.7-18.7,42-28,70-28s51.5,9.5,70.5,28.5s28.5,42.3,28.5,70s-9.7,51.2-29,70.5l-300,301l0,0
	c-4,3.3-9,6.3-15,9l-126,32h-9l0,0c-10,0-17.7-3-23-9l0,0c-4-3.3-6.7-7.7-8-13c-1.3-5.3-1.7-11-1-17l32-126l0,0
	C442.3,463.3,445.3,458.3,448.6,454.3z M550.6,544.3l295-297l0,0c6-6,9-14,9-24s-3.2-18.2-9.5-24.5s-14.5-9.5-24.5-9.5s-18,3-24,9
	l-297,295l-15,68L550.6,544.3z"/>
</svg>
