<?xml version="1.0" encoding="utf-8"?>
<!-- Generator: Adobe Illustrator 24.3.0, SVG Export Plug-In . SVG Version: 6.00 Build 0)  -->
<svg version="1.1" id="图层_1" xmlns="http://www.w3.org/2000/svg" xmlns:xlink="http://www.w3.org/1999/xlink" x="0px" y="0px"
	 viewBox="0 0 1056.3 1054.7" style="enable-background:new 0 0 1056.3 1054.7;" xml:space="preserve">
<path d="M528.2,347.3c0-9.3-2.7-16.7-8-22c-5.3-5.3-12.5-8-21.5-8s-16.3,2.7-22,8s-8.5,12.7-8.5,22v120h-120l0,0
	c-8.7,0-15.8,2.7-21.5,8s-8.5,12.5-8.5,21.5s2.8,16.3,8.5,22c5.7,5.7,12.8,8.5,21.5,8.5h120v120l0,0c0,8.7,2.8,15.8,8.5,21.5
	c5.7,5.7,13,8.5,22,8.5s16.2-2.8,21.5-8.5c5.3-5.7,8-12.8,8-21.5v-120h120l0,0c9.3,0,16.7-2.8,22-8.5c5.3-5.7,8-13,8-22
	s-2.7-16.2-8-21.5s-12.7-8-22-8h-120V347.3L528.2,347.3z M855.2,938.3c6,6,13,9,21,9s15-3,21-9l42-42l0,0c6-6,9-13,9-21s-3-15-9-21
	l-126-126l0,0c50-68.7,75-145.7,75-231l0,0c0-70.7-17.7-136.3-53-197l0,0c-34.7-58.7-81.3-105.3-140-140l0,0
	c-60.7-35.3-126.3-53-197-53s-136.3,17.7-197,53l0,0c-58.7,34.7-105.3,81.3-140,140l0,0c-35.3,60.7-53,126.3-53,197
	s17.7,136.3,53,197l0,0c34.7,58.7,81.3,105.3,140,140l0,0c60.7,35.3,126.3,53,197,53l0,0c85.3,0,162.3-25,231-75L855.2,938.3
	L855.2,938.3z M331.2,782.3L331.2,782.3c-50-28.7-89.3-68-118-118l0,0c-30-51.3-45-107-45-167s15-115.7,45-167l0,0
	c28.7-50,68-89.3,118-118l0,0c51.3-30,107-45,167-45s115.7,15,167,45l0,0c50,28.7,89.3,68,118,118l0,0c30,51.3,45,107,45,167
	s-15,115.7-45,167l0,0c-28.7,50-68,89.3-118,118l0,0c-51.3,30-107,45-167,45l0,0C438.2,827.3,382.5,812.3,331.2,782.3z"/>
</svg>
