<?xml version="1.0" encoding="utf-8"?>
<!-- Generator: Adobe Illustrator 24.3.0, SVG Export Plug-In . SVG Version: 6.00 Build 0)  -->
<svg version="1.1" id="图层_1" xmlns="http://www.w3.org/2000/svg" xmlns:xlink="http://www.w3.org/1999/xlink" x="0px" y="0px"
	 viewBox="0 0 1032.1 1036.5" style="enable-background:new 0 0 1032.1 1036.5;" xml:space="preserve">
<path d="M515.5,964.8L515.5,964.8c-80.7,0-155.7-20.3-225-61l0,0c-67.3-39.3-120.7-92.7-160-160l0,0c-40.7-70-61-145.3-61-226
	s20.3-155.7,61-225l0,0c39.3-67.3,92.7-120.7,160-160l0,0c69.3-40.7,144.3-61,225-61s155.7,20.3,225,61l0,0
	c67.3,39.3,121,92.7,161,160l0,0c40.7,69.3,61,144.3,61,225s-20.3,156-61,226l0,0c-40,67.3-93.7,120.7-161,160l0,0
	C671.2,944.4,596.2,964.8,515.5,964.8z M515.5,127.8L515.5,127.8c-70.7,0-136.3,17.7-197,53l0,0c-58.7,34.7-105.3,81.3-140,140l0,0
	c-36,60.7-54,126.3-54,197s18,136.3,54,197l0,0c34.7,59.3,81.3,106.3,140,141l0,0c60.7,35.3,126.3,53,197,53s136.3-17.7,197-53l0,0
	c59.3-34.7,106-81.7,140-141l0,0c36-60.7,54-126.3,54-197s-18-136.3-54-197l0,0c-34-58.7-80.7-105.3-140-140l0,0
	C651.9,145.4,586.2,127.8,515.5,127.8z M758.5,537.8l-167,168c-6,5.3-12.8,8-20.5,8s-14.2-2.8-19.5-8.5s-8-12.3-8-20
	s2.7-14.2,8-19.5l0,0l120-120h-379c-8,0-14.7-2.7-20-8c-5.3-5.3-8-11.8-8-19.5c0-7.7,2.7-14.3,8-20s12-8.5,20-8.5l0,0h379l-120-119
	c-5.3-5.3-8-12-8-20s2.7-14.7,8-20c5.3-5.3,11.8-8,19.5-8s14.5,2.7,20.5,8l0,0l167,168c5.3,5.3,8,11.8,8,19.5
	C766.5,525.9,763.9,532.4,758.5,537.8L758.5,537.8z"/>
</svg>
