<?xml version="1.0" encoding="utf-8"?>
<!-- Generator: Adobe Illustrator 24.3.0, SVG Export Plug-In . SVG Version: 6.00 Build 0)  -->
<svg version="1.1" id="图层_1" xmlns="http://www.w3.org/2000/svg" xmlns:xlink="http://www.w3.org/1999/xlink" x="0px" y="0px"
	 viewBox="0 0 1021.5 992.5" style="enable-background:new 0 0 1021.5 992.5;" xml:space="preserve">
<path d="M510.7,158.8L510.7,158.8c-124.7,0-230.3,41.7-317,125l0,0c-52,50-93,110-123,180l0,0c-8.7,21.3-8.7,42.7,0,64l0,0
	c30,70,71,130,123,180l0,0c86.7,84,192.3,126,317,126l0,0c87.3,0,165.7-21.3,235-64l0,0c54-32,101-75.7,141-131l0,0
	c26-34.7,47.3-71.7,64-111l0,0c8.7-21.3,8.7-42.7,0-64l0,0c-16.7-39.3-38-76.3-64-111l0,0c-40-55.3-87-99-141-131l0,0
	C676.4,179.8,598.1,158.8,510.7,158.8z M122.7,506.8L122.7,506.8c-2.7-6.7-2.7-13.7,0-21l0,0c14-34,32.7-67,56-99l0,0
	c35.3-48.7,76.7-87.3,124-116l0,0c62-37.3,131.3-56,208-56s146,18.7,208,56l0,0c47.3,28.7,88.7,67.3,124,116l0,0
	c23.3,31.3,42,64,56,98l0,0c2.7,6.7,2.7,13.7,0,21l0,0c-14,34-32.7,67-56,99l0,0c-35.3,48.7-76.7,87.3-124,116l0,0
	c-62,37.3-131.3,56-208,56s-146-18.7-208-56l0,0c-47.3-28.7-88.7-67.3-124-116l0,0C155.4,573.4,136.7,540.8,122.7,506.8z
	 M510.7,354.8L510.7,354.8c-25.3,0-48.8,6.3-70.5,19s-38.8,29.8-51.5,51.5s-19,45.2-19,70.5c0,25.3,6.3,48.8,19,70.5
	c12.7,21.7,29.8,38.8,51.5,51.5c21.7,12.7,45.2,19,70.5,19c25.3,0,48.8-6.3,70.5-19c21.7-12.7,38.8-29.8,51.5-51.5
	c12.7-21.7,19-45.2,19-70.5c0-25.3-6.3-48.8-19-70.5s-29.8-38.8-51.5-51.5S536.1,354.8,510.7,354.8z M510.7,579.8L510.7,579.8
	c-23.3,0-43.2-8.2-59.5-24.5c-16.3-16.3-24.5-36.2-24.5-59.5c0-23.3,8.2-43.2,24.5-59.5s36.2-24.5,59.5-24.5
	c23.3,0,43.2,8.2,59.5,24.5s24.5,36.2,24.5,59.5c0,23.3-8.2,43.2-24.5,59.5C553.9,571.6,534.1,579.8,510.7,579.8z"/>
</svg>
