<?xml version="1.0" encoding="utf-8"?>
<!-- Generator: Adobe Illustrator 24.3.0, SVG Export Plug-In . SVG Version: 6.00 Build 0)  -->
<svg version="1.1" id="图层_1" xmlns="http://www.w3.org/2000/svg" xmlns:xlink="http://www.w3.org/1999/xlink" x="0px" y="0px"
	 viewBox="0 0 961.8 988" style="enable-background:new 0 0 961.8 988;" xml:space="preserve">
<path d="M130,614.9c5-3.3,8.5-7.7,10.5-13l57-159l0,0c2.7-8,2.3-15.3-1-22s-8.7-11.5-16-14.5s-14.5-2.8-21.5,0.5s-11.8,8.7-14.5,16
	l-58,159l0,0c-2.7,7.3-2.3,14.5,1,21.5s8.7,12.2,16,15.5l0,0c2,0.7,5.3,1,10,1l0,0C119.5,619.9,125,618.3,130,614.9z M366,707.4
	c5.7-4.3,9.2-9.5,10.5-15.5l29-166l0,0c2-8,0.8-15.2-3.5-21.5s-10.5-10.2-18.5-11.5s-15,0.2-21,4.5s-9.7,10.5-11,18.5l-30,166l0,0
	c-1.3,7.3,0.2,14.2,4.5,20.5c4.3,6.3,10.5,10.2,18.5,11.5h4l0,0C354.5,713.9,360.3,711.8,366,707.4z M618.5,713.9
	c7.3-1.3,13.2-5.2,17.5-11.5c4.3-6.3,5.8-13.2,4.5-20.5l-31-168l0,0c-1.3-7.3-5-13.2-11-17.5s-13-5.8-21-4.5s-14.2,5.2-18.5,11.5
	s-5.5,13.2-3.5,20.5l29,166l0,0c1.3,7.3,4.7,13.2,10,17.5c5.3,4.3,11.3,6.5,18,6.5H618.5L618.5,713.9z M857.5,618.9
	c7.3-3.3,12.7-8.7,16-16c3.3-7.3,3.7-14.3,1-21l-58-159l0,0c-2.7-7.3-7.7-12.7-15-16s-14.5-3.7-21.5-1s-12.3,7.7-16,15
	s-3.8,14.7-0.5,22l57,159l0,0c2,5.3,5.5,9.7,10.5,13c5,3.3,10.5,5,16.5,5L857.5,618.9L857.5,618.9z M745.5,494.9L745.5,494.9
	c55.3-29.3,101.7-67.7,139-115l0,0c20.7-24.7,35-47,43-67l0,0c3.3-6.7,3.7-13.7,1-21s-7.5-12.5-14.5-15.5s-14.2-3.2-21.5-0.5
	s-12.3,7.7-15,15h-1l0,0c-9.3,20-22.7,40.3-40,61l0,0c-34,40-75.3,72-124,96l0,0c-66.7,34-144,51-232,51s-165.3-17-232-51l0,0
	c-48.7-24-90-56-124-96l0,0c-17.3-20.7-30.7-41-40-61h-1l0,0c-2.7-6.7-7.5-11.3-14.5-14s-14-2.7-21,0s-11.8,7.7-14.5,15
	c-2.7,7.3-2.7,14.3,0,21l0,0c8,20,22.3,42.3,43,67l0,0c37.3,47.3,83.7,85.7,139,115l0,0c76.7,40,165,60,265,60l0,0
	C580.5,554.9,668.8,534.9,745.5,494.9z"/>
</svg>
