<?xml version="1.0" encoding="utf-8"?>
<!-- Generator: Adobe Illustrator 24.3.0, SVG Export Plug-In . SVG Version: 6.00 Build 0)  -->
<svg version="1.1" id="图层_1" xmlns="http://www.w3.org/2000/svg" xmlns:xlink="http://www.w3.org/1999/xlink" x="0px" y="0px"
	 viewBox="0 0 994.2 992.5" style="enable-background:new 0 0 994.2 992.5;" xml:space="preserve">
<path d="M474.8,83.6c13.7-5,26.8-4.2,39.5,2.5l0,0c3.3,2,8,5,14,9l0,0c8,6.7,15,11.3,21,14l104,214l235,34l0,0
	c13.3,2,24.3,8.7,33,20c8.7,11.3,12.7,24,12,38v4l0,0c-2.7,12-7.7,22-15,30l-171,166l41,235l0,0c2,14.7-0.8,27.8-8.5,39.5
	c-7.7,11.7-18.5,19.2-32.5,22.5h-4l0,0c-8.7,0-14.7-0.3-18-1l0,0c-6-0.7-11.3-2.7-16-6l-212-111l-211,111l0,0
	c-12.7,6.7-25.7,8.2-39,4.5c-13.3-3.7-23.7-11.5-31-23.5l-2-2l0,0c-6.7-11.3-9-22.7-7-34l41-235l-171-166l0,0
	c-10.7-9.3-16.2-21-16.5-35s3.8-26.7,12.5-38l2-2l0,0c7.3-7.3,17.3-12.3,30-15l235-34l104-213l0,0C451,98.1,461.2,88.6,474.8,83.6z"
	/>
</svg>
