<?xml version="1.0" encoding="utf-8"?>
<!-- Generator: Adobe Illustrator 24.3.0, SVG Export Plug-In . SVG Version: 6.00 Build 0)  -->
<svg version="1.1" id="图层_1" xmlns="http://www.w3.org/2000/svg" xmlns:xlink="http://www.w3.org/1999/xlink" x="0px" y="0px"
	 viewBox="0 0 1074.5 1048.6" style="enable-background:new 0 0 1074.5 1048.6;" xml:space="preserve">
<path d="M775.3,658.1L775.3,658.1c42.7-25.3,76.7-59.7,102-103l0,0c26-44.7,39-93,39-145s-13-100-39-144l0,0
	c-25.3-43.3-59.3-77.7-102-103l0,0c-44.7-26-93-39-145-39s-100.3,13-145,39l0,0c-42.7,25.3-76.7,59.7-102,103l0,0
	c-26,44-39,92-39,144s13,100.3,39,145l0,0c25.3,43.3,59.3,77.7,102,103l0,0c44.7,26,93,39,145,39l0,0
	C682.3,697.1,730.6,684.1,775.3,658.1z M742.3,218.1c34,20,60.8,47,80.5,81s29.5,71.2,29.5,111.5s-9.8,77.5-29.5,111.5
	s-46.5,61-80.5,81s-71.3,30-112,30s-78-10-112-30s-60.8-47-80.5-81s-29.5-71.2-29.5-111.5s9.8-77.5,29.5-111.5s46.5-61,80.5-81
	s71.3-30,112-30l0,0C670.9,188.1,708.3,198.1,742.3,218.1z M329.8,650.6c5.7-4.3,9.2-9.8,10.5-16.5l0,0c2.7-8,2-16-2-24
	s-10-13.3-18-16l0,0c-34-10.7-61.5-30.7-82.5-60c-21-29.3-31.5-62-31.5-98l0,0c0-30.7,7.5-58.8,22.5-84.5s35.8-46.2,62.5-61.5l0,0
	c8-4,13.2-10.2,15.5-18.5s1.5-16.5-2.5-24.5s-10.2-13.2-18.5-15.5s-16.8-1.5-25.5,2.5l0,0c-36,21.3-64.3,50-85,86s-31,74.7-31,116
	l0,0c0,49.3,14.5,94.2,43.5,134.5c29,40.3,67.2,68.5,114.5,84.5l0,0c2,1.3,5.3,2,10,2l0,0C318.3,657.1,324.1,654.9,329.8,650.6z
	 M980.3,915.6c6-5.7,9.2-12.8,9.5-21.5c0.3-8.7-2.8-16.3-9.5-23l0,0c-46-48.7-99.3-86.2-160-112.5c-60.7-26.3-124.5-39.5-191.5-39.5
	s-130.8,13.2-191.5,39.5c-60.7,26.3-114.3,63.8-161,112.5l0,0c-5.3,6.7-7.8,14.5-7.5,23.5c0.3,9,3.7,16.3,10,22
	c6.3,5.7,13.7,8.3,22,8c8.3-0.3,15.8-3.8,22.5-10.5l0,0c40-42,86.3-74.3,139-97c52.7-22.7,108.2-34,166.5-34s113.8,11.3,166.5,34
	c52.7,22.7,99,55,139,97l0,0c6.7,6.7,14.7,10,24,10l0,0C966.9,924.1,974.3,921.2,980.3,915.6z M139.3,834.1L139.3,834.1
	c26-26.7,55.3-48.3,88-65c32.7-16.7,67.3-27.3,104-32l0,0c8.7-0.7,15.5-4.5,20.5-11.5s7.2-14.8,6.5-23.5c-0.7-8.7-4.5-15.7-11.5-21
	c-7-5.3-14.8-7.7-23.5-7l0,0c-44,6-85.8,19-125.5,39s-74.8,46-105.5,78l0,0c-5.3,6.7-7.8,14.3-7.5,23c0.3,8.7,3.8,15.8,10.5,21.5
	c6.7,5.7,13.7,8.5,21,8.5l0,0C126.9,844.1,134.6,840.7,139.3,834.1z"/>
</svg>
