<?xml version="1.0" encoding="utf-8"?>
<!-- Generator: Adobe Illustrator 24.3.0, SVG Export Plug-In . SVG Version: 6.00 Build 0)  -->
<svg version="1.1" id="图层_1" xmlns="http://www.w3.org/2000/svg" xmlns:xlink="http://www.w3.org/1999/xlink" x="0px" y="0px"
	 viewBox="0 0 960 956.2" style="enable-background:new 0 0 960 956.2;" xml:space="preserve">
<path d="M160,606.1L160,606.1v96c0,27.3,9.2,50.2,27.5,68.5s41.2,27.5,68.5,27.5l0,0h96c9.3,0,17,3,23,9s9,13.7,9,23s-3,17-9,23
	s-13.7,9-23,9l0,0h-96c-29.3,0-56.2-7.2-80.5-21.5s-43.7-33.7-58-58S96,731.4,96,702.1l0,0v-96c0-9.3,3-17,9-23s13.7-9,23-9
	s17,3,23,9S160,596.8,160,606.1z M96,350.1L96,350.1v-96c0-29.3,7.2-56.2,21.5-80.5s33.7-43.7,58-58s51.2-21.5,80.5-21.5l0,0h96
	c9.3,0,17,3,23,9s9,13.7,9,23s-3,17-9,23s-13.7,9-23,9l0,0h-96c-27.3,0-50.2,9.2-68.5,27.5S160,226.8,160,254.1l0,0v96
	c0,9.3-3,17-9,23s-13.7,9-23,9s-17-3-23-9S96,359.4,96,350.1z M864,606.1L864,606.1v96c0,29.3-7.2,56.2-21.5,80.5s-33.7,43.7-58,58
	s-51.2,21.5-80.5,21.5l0,0h-96c-9.3,0-17-3-23-9s-9-13.7-9-23s3-17,9-23s13.7-9,23-9l0,0h96c27.3,0,50.2-9.2,68.5-27.5
	s27.5-41.2,27.5-68.5l0,0v-96c0-9.3,3-17,9-23s13.7-9,23-9s17,3,23,9S864,596.8,864,606.1z M800,350.1L800,350.1v-96
	c0-27.3-9.2-50.2-27.5-68.5s-41.2-27.5-68.5-27.5l0,0h-96c-9.3,0-17-3-23-9s-9-13.7-9-23s3-17,9-23s13.7-9,23-9l0,0h96
	c29.3,0,56.2,7.2,80.5,21.5s43.7,33.7,58,58s21.5,51.2,21.5,80.5l0,0v96c0,9.3-3,17-9,23s-13.7,9-23,9s-17-3-23-9
	S800,359.4,800,350.1z"/>
</svg>
