<?xml version="1.0" encoding="utf-8"?>
<!-- Generator: Adobe Illustrator 24.3.0, SVG Export Plug-In . SVG Version: 6.00 Build 0)  -->
<svg version="1.1" id="图层_1" xmlns="http://www.w3.org/2000/svg" xmlns:xlink="http://www.w3.org/1999/xlink" x="0px" y="0px"
	 viewBox="0 0 1012.4 983.5" style="enable-background:new 0 0 1012.4 983.5;" xml:space="preserve">
<path d="M916.2,379.7c15,11.3,24.8,26.5,29.5,45.5s3.7,39.2-3,60.5l-100,349l0,0c-10,22-23.3,38.7-40,50l0,0
	c-14.7,10-34.3,17.7-59,23h-476l0,0c4.7-10,7-19.7,7-29v-471l0,0c0-6.7-0.7-12.3-2-17l0,0c43.3-11.3,80.7-32.7,112-64l0,0
	c42.7-42.7,70-101.3,82-176l0,0c4-21.3,14.2-39.2,30.5-53.5c16.3-14.3,35.5-21.5,57.5-21.5l0,0c24,0,44.5,8.3,61.5,25
	s25.5,37.3,25.5,62v177l0,0c4.7,14.7,12,22.7,22,24h196l0,0C882.4,363.1,901.2,368.4,916.2,379.7z M221.2,899.7
	c-8.3,5.3-17.8,8-28.5,8h-66l0,0c-18,0-33-6.3-45-19s-18-28-18-46v-399l0,0c0-16.7,6.3-31.3,19-44s27.3-19,44-19h66l0,0
	c10.7,0,20.2,2.7,28.5,8s12.5,11.7,12.5,19v473l0,0C233.7,888.1,229.6,894.4,221.2,899.7z M233.7,880.7L233.7,880.7z"/>
</svg>
