<?xml version="1.0" encoding="utf-8"?>
<!-- Generator: Adobe Illustrator 24.3.0, SVG Export Plug-In . SVG Version: 6.00 Build 0)  -->
<svg version="1.1" id="图层_1" xmlns="http://www.w3.org/2000/svg" xmlns:xlink="http://www.w3.org/1999/xlink" x="0px" y="0px"
	 viewBox="0 0 1044.2 1018.3" style="enable-background:new 0 0 1044.2 1018.3;" xml:space="preserve">
<path d="M299.1,890.2L299.1,890.2c-66.7-38.7-119.3-91.3-158-158l0,0c-40.7-68.7-61-143-61-223s20.3-154.3,61-223l0,0
	c38.7-66.7,91.3-119.3,158-158l0,0c68.7-40.7,143-61,223-61s154.3,20.3,223,61l0,0c66.7,38.7,119.3,91.3,158,158l0,0
	c40.7,68.7,61,143,61,223s-20.3,154.3-61,223l0,0c-38.7,66.7-91.3,119.3-158,158l0,0c-68.7,40.7-143,61-223,61l0,0
	C442.1,951.2,367.8,930.8,299.1,890.2z M712.1,834.2L712.1,834.2c56.7-33.3,101.7-78.3,135-135l0,0c34-58.7,51-122,51-190
	s-17-131.3-51-190l0,0c-33.3-56.7-78.3-101.7-135-135l0,0c-58.7-34-121.8-51-189.5-51s-130.7,16.7-189,50s-104.2,79.2-137.5,137.5
	s-50,121.2-50,188.5s16.7,130.2,50,188.5s79.2,104.2,137.5,137.5s121.2,50,188.5,50l0,0C590.1,885.2,653.4,868.2,712.1,834.2z
	 M545.6,611.2c-6.3,6.7-14.2,10-23.5,10c-9.3,0-17.2-3.3-23.5-10c-6.3-6.7-9.5-14.3-9.5-23v-6l0,0c0-26,6.3-50.7,19-74
	c12.7-23.3,30-42,52-56l0,0c34.7-22.7,52-44.7,52-66l0,0c0-24.7-8.8-45.8-26.5-63.5s-38.8-26.5-63.5-26.5s-45.8,8.8-63.5,26.5
	s-26.5,38.8-26.5,63.5l0,0c0,6-1.5,11.5-4.5,16.5s-7,9-12,12s-10.3,4.5-16,4.5s-11.2-1.5-16.5-4.5s-9.3-7-12-12s-4-10.5-4-16.5l0,0
	c0-28,6.8-53.8,20.5-77.5s32.5-42.5,56.5-56.5s50-21,78-21c28,0,54,7,78,21s42.8,32.8,56.5,56.5s20.5,49.5,20.5,77.5l0,0
	c0,45.3-27,85.7-81,121l0,0c-12.7,8-22.7,18.7-30,32c-7.3,13.3-11,27.7-11,43v6l0,0C555.1,596.8,551.9,604.5,545.6,611.2z
	 M522.1,714.2L522.1,714.2z M493.1,685.2c8-8,17.7-12,29-12c11.3,0,21,4,29,12s12,17.5,12,28.5s-4,20.5-12,28.5s-17.7,12-29,12
	c-11.3,0-21-4-29-12s-12-17.3-12-28l0,0C481.1,702.8,485.1,693.2,493.1,685.2z"/>
</svg>
