<?xml version="1.0" encoding="utf-8"?>
<!-- Generator: Adobe Illustrator 24.3.0, SVG Export Plug-In . SVG Version: 6.00 Build 0)  -->
<svg version="1.1" id="图层_1" xmlns="http://www.w3.org/2000/svg" xmlns:xlink="http://www.w3.org/1999/xlink" x="0px" y="0px"
	 viewBox="0 0 1032.1 994.1" style="enable-background:new 0 0 1032.1 994.1;" xml:space="preserve">
<path d="M295,119L295,119c-65.3,39.3-117.7,91.7-157,157l0,0c-39.3,68-59,141.7-59,221s19.7,153,59,221l0,0
	c39.3,65.3,91.7,117.7,157,157l0,0c68,39.3,141.7,59,221,59s153-19.7,221-59l0,0c65.3-39.3,117.7-91.7,157-157l0,0
	c39.3-68,59-141.7,59-221s-19.7-153-59-221l0,0c-39.3-65.3-91.7-117.7-157-157l0,0c-68-39.3-141.7-59-221-59l0,0
	C436.7,60,363,79.7,295,119z M546.5,701.5c8.3,8.3,12.5,18.3,12.5,30c0,11.7-4.2,21.7-12.5,30C538.2,769.9,528,774,516,774
	s-22.2-4.2-30.5-12.5c-8.3-8.3-12.5-18.3-12.5-30c0-11.7,4.2-21.7,12.5-30c8.3-8.3,18.5-12.5,30.5-12.5l0,0
	C528,689,538.2,693.2,546.5,701.5z M585.5,249c21,12.7,37.8,29.5,50.5,50.5s19,44.2,19,69.5l0,0c0,12-2.3,23.3-7,34l0,0
	c-9.3,23.3-28.3,48.3-57,75l-43,36v90l0,0c0,8-2.8,15-8.5,21s-12.8,9.7-21.5,11h-2l0,0c-8.7,0-15.8-2.8-21.5-8.5
	c-5.7-5.7-9.2-12.8-10.5-21.5V497l0,0c0-5.3,1.3-10.5,4-15.5s6.3-9.2,11-12.5l15-10l0,0c12.7-8.7,24-18,34-28l0,0
	c20-18,33.7-35,41-51l0,0c1.3-3.3,2-7,2-11l0,0c0-20-7.5-37.5-22.5-52.5S536,294,516,294s-37.5,7.5-52.5,22.5S441,349,441,369l0,0
	c0,8.7-3.2,16.2-9.5,22.5s-13.7,9.5-22,9.5s-15.8-3.2-22.5-9.5s-10-13.8-10-22.5l0,0c0-25.3,6.3-48.5,19-69.5s29.5-37.8,50.5-50.5
	s44.2-19,69.5-19l0,0C541.4,230,564.5,236.4,585.5,249z"/>
</svg>
