<?xml version="1.0" encoding="utf-8"?>
<!-- Generator: Adobe Illustrator 24.3.0, SVG Export Plug-In . SVG Version: 6.00 Build 0)  -->
<svg version="1.1" id="图层_1" xmlns="http://www.w3.org/2000/svg" xmlns:xlink="http://www.w3.org/1999/xlink" x="0px" y="0px"
	 viewBox="0 0 1125.7 1145.6" style="enable-background:new 0 0 1125.7 1145.6;" xml:space="preserve">
<path d="M211.4,130.3c-19.3,0.7-35.8,8.2-49.5,22.5s-20.5,31.5-20.5,51.5v730l0,0c1.3,19.3,9.2,35.8,23.5,49.5
	c14.3,13.7,31.5,20.5,51.5,20.5h341l0,0c-39.3-27.3-70.3-62-93-104l0,0c-23.3-44-35-91-35-141l0,0c0-54,13.7-104,41-150l0,0
	c26.7-45.3,62.3-81.3,107-108l0,0c46.7-27.3,97-41,151-41l0,0c48.7,0,94.7,11.3,138,34v-294l0,0c-0.7-19.3-8.2-35.8-22.5-49.5
	s-31.5-20.5-51.5-20.5H211.4L211.4,130.3z M408.9,502.3c6.3,6.7,9.5,14.2,9.5,22.5c0,8.3-2.8,15.5-8.5,21.5s-12.8,9.3-21.5,10h-110
	l0,0c-8.7-0.7-15.8-4-21.5-10c-5.7-6-8.5-13.2-8.5-21.5c0-8.3,2.8-15.5,8.5-21.5c5.7-6,12.8-9.7,21.5-11h108l0,0
	C395,492.3,402.5,495.7,408.9,502.3z M728.9,331.8c6.3,6.3,9.5,13.7,9.5,22s-2.8,15.5-8.5,21.5s-12.8,9.7-21.5,11h-430l0,0
	c-8.7-1.3-15.8-5-21.5-11c-5.7-6-8.5-13.2-8.5-21.5s2.8-15.5,8.5-21.5c5.7-6,12.8-9.3,21.5-10h428l0,0
	C715,322.3,722.5,325.5,728.9,331.8z M615.4,557.3c-37.3,22-67,51.7-89,89c-22,37.3-33,78.5-33,123.5s11,86.2,33,123.5
	s51.7,67,89,89s78.5,33,123.5,33s86.2-11,123.5-33s67-51.7,89-89s33-78.5,33-123.5s-11-86.2-33-123.5c-22-37.3-51.7-67-89-89
	s-78.7-33-124-33l0,0C693.7,524.3,652.7,535.3,615.4,557.3z M760.4,639.8c6,5.7,9.3,12.8,10,21.5v94l66,30l0,0
	c7.3,2.7,12.7,7.8,16,15.5s4,15.2,2,22.5l-3,2l0,0c-2.7,7.3-7.8,12.5-15.5,15.5s-15.2,3.5-22.5,1.5l-2-2l-85-38l0,0
	c-10.7-4-17.3-12.7-20-26v-113l0,0c0-8.7,3.3-16.2,10-22.5c6.7-6.3,14-9.5,22-9.5l0,0C747,631.3,754.4,634.2,760.4,639.8z"/>
</svg>
