<?xml version="1.0" encoding="utf-8"?>
<!-- Generator: Adobe Illustrator 24.3.0, SVG Export Plug-In . SVG Version: 6.00 Build 0)  -->
<svg version="1.1" id="图层_1" xmlns="http://www.w3.org/2000/svg" xmlns:xlink="http://www.w3.org/1999/xlink" x="0px" y="0px"
	 viewBox="0 0 1048.8 1028.9" style="enable-background:new 0 0 1048.8 1028.9;" xml:space="preserve">
<path d="M150.4,821.5h748v-614h-748V821.5z M951.4,153.5c12,12,18,26.7,18,44v634l0,0c0,17.3-6,32-18,44s-26.3,18-43,18h-768l0,0
	c-16.7,0-31-6-43-18s-18-26.7-18-44v-634l0,0c0-17.3,6-32,18-44s26.3-18,43-18h768l0,0C925,135.5,939.4,141.5,951.4,153.5z
	 M287.4,715.5l165-107l0,0c3.3-2,7-3,11-3s7.7,1,11,3l102,65l0,0c6.7,4,14,6,22,6s15.3-2.3,22-7l210-141l0,0
	c8-6,13.2-13.8,15.5-23.5s0.8-18.7-4.5-27s-13-13.5-23-15.5s-19,0-27,6l-183,123l0,0c-3.3,2-7,3-11,3s-7.7-1-11-3l-102-64l0,0
	c-6.7-4-14-6-22-6s-15.3,2-22,6l-190,124l0,0c-8.7,5.3-14.2,12.7-16.5,22c-2.3,9.3-1.2,18.3,3.5,27l0,0c3.3,5.3,7.8,9.5,13.5,12.5
	s11.5,4.5,17.5,4.5l0,0C275.7,720.5,282,718.8,287.4,715.5z M350.4,376.5L350.4,376.5z M305.9,350.5c4.3-8,10.5-14.2,18.5-18.5
	s16.7-6.5,26-6.5s17.8,2.2,25.5,6.5s13.8,10.5,18.5,18.5s7,16.5,7,25.5s-2.3,17.5-7,25.5s-10.8,14.3-18.5,19s-16.2,7-25.5,7
	s-18-2.3-26-7s-14.2-11-18.5-19s-6.5-16.3-6.5-25l0,0C299.4,367.1,301.5,358.5,305.9,350.5z"/>
</svg>
