<?xml version="1.0" encoding="utf-8"?>
<!-- Generator: Adobe Illustrator 24.3.0, SVG Export Plug-In . SVG Version: 6.00 Build 0)  -->
<svg version="1.1" id="图层_1" xmlns="http://www.w3.org/2000/svg" xmlns:xlink="http://www.w3.org/1999/xlink" x="0px" y="0px"
	 viewBox="0 0 1003.3 974.4" style="enable-background:new 0 0 1003.3 974.4;" xml:space="preserve">
<path d="M501.6,924.2L501.6,924.2c-79.3,0-153-19.7-221-59l0,0c-65.3-39.3-117.7-91.7-157-157l0,0c-39.3-68-59-141.7-59-221
	s19.7-153,59-221l0,0c39.3-65.3,91.7-117.7,157-157l0,0c68-39.3,141.7-59,221-59s153,19.7,221,59l0,0c65.3,39.3,117.7,91.7,157,157
	l0,0c39.3,68,59,141.7,59,221s-19.7,153-59,221l0,0c-39.3,65.3-91.7,117.7-157,157l0,0C654.6,904.5,581,924.2,501.6,924.2z
	 M501.6,114.2L501.6,114.2c-67.3,0-130,17-188,51l0,0c-56,33.3-100.7,78-134,134l0,0c-34,58-51,120.7-51,188s17,130,51,188l0,0
	c33.3,56,78,100.7,134,134l0,0c58,34,120.7,51,188,51s130-17,188-51l0,0c56-33.3,100.7-78,134-134l0,0c34-58,51-120.7,51-188
	s-17-130-51-188l0,0c-33.3-56-78-100.7-134-134l0,0C631.6,131.2,569,114.2,501.6,114.2z M501.6,690.2L501.6,690.2
	c-8.7,0-16.2-3.3-22.5-10s-9.5-14-9.5-22l0,0v-43c0-8.7,3.2-16.2,9.5-22.5c6.3-6.3,13.8-9.5,22.5-9.5c8.7,0,16.2,3.2,22.5,9.5
	c6.3,6.3,9.5,13.8,9.5,22.5l0,0v43c0,8-3.2,15.3-9.5,22S510.3,690.2,501.6,690.2z M501.6,540.2L501.6,540.2
	c-8.7,0-16.2-3.2-22.5-9.5c-6.3-6.3-9.5-13.8-9.5-22.5l0,0v-42c0-8.7,3.2-16.2,9.5-22.5s13.8-9.5,22.5-9.5c8.7,0,16.2,3.2,22.5,9.5
	s9.5,13.8,9.5,22.5l0,0v42c0,8.7-3.2,16.2-9.5,22.5C517.8,537,510.3,540.2,501.6,540.2z M501.6,391.2L501.6,391.2
	c-8.7,0-16.2-3.2-22.5-9.5s-9.5-13.8-9.5-22.5l0,0v-43c0-8,3.2-15.3,9.5-22c6.3-6.7,13.8-10,22.5-10c8.7,0,16.2,3.3,22.5,10
	c6.3,6.7,9.5,14,9.5,22l0,0v43c0,8.7-3.2,16.2-9.5,22.5S510.3,391.2,501.6,391.2z M640.6,690.2L640.6,690.2c-8.7,0-16.2-3.3-22.5-10
	s-9.5-14-9.5-22l0,0v-43c0-8.7,3.2-16.2,9.5-22.5c6.3-6.3,13.7-9.5,22-9.5s15.8,3.2,22.5,9.5c6.7,6.3,10,13.8,10,22.5l0,0v43
	c0,8-3.3,15.3-10,22S648.6,690.2,640.6,690.2z M640.6,540.2L640.6,540.2c-8.7,0-16.2-3.2-22.5-9.5c-6.3-6.3-9.5-13.8-9.5-22.5l0,0
	v-42c0-8.7,3.2-16.2,9.5-22.5s13.7-9.5,22-9.5s15.8,3.2,22.5,9.5s10,13.8,10,22.5l0,0v42c0,8.7-3.3,16.2-10,22.5
	C656,537,648.6,540.2,640.6,540.2z M640.6,391.2L640.6,391.2c-8.7,0-16.2-3.2-22.5-9.5s-9.5-13.8-9.5-22.5l0,0v-43
	c0-8,3.2-15.3,9.5-22c6.3-6.7,13.7-10,22-10s15.8,3.3,22.5,10c6.7,6.7,10,14,10,22l0,0v43c0,8.7-3.3,16.2-10,22.5
	S648.6,391.2,640.6,391.2z M362.6,690.2L362.6,690.2c-8,0-15.3-3.3-22-10s-10-14-10-22l0,0v-43c0-8.7,3.3-16.2,10-22.5
	c6.7-6.3,14.2-9.5,22.5-9.5s15.7,3.2,22,9.5c6.3,6.3,9.5,13.8,9.5,22.5l0,0v43c0,8-3.2,15.3-9.5,22S371.3,690.2,362.6,690.2z
	 M362.6,540.2L362.6,540.2c-8,0-15.3-3.2-22-9.5c-6.7-6.3-10-13.8-10-22.5l0,0v-42c0-8.7,3.3-16.2,10-22.5s14.2-9.5,22.5-9.5
	s15.7,3.2,22,9.5s9.5,13.8,9.5,22.5l0,0v42c0,8.7-3.2,16.2-9.5,22.5C378.8,537,371.3,540.2,362.6,540.2z M362.6,391.2L362.6,391.2
	c-8,0-15.3-3.2-22-9.5s-10-13.8-10-22.5l0,0v-43c0-8,3.3-15.3,10-22c6.7-6.7,14.2-10,22.5-10s15.7,3.3,22,10c6.3,6.7,9.5,14,9.5,22
	l0,0v43c0,8.7-3.2,16.2-9.5,22.5S371.3,391.2,362.6,391.2z"/>
</svg>
