<?xml version="1.0" encoding="utf-8"?>
<!-- Generator: Adobe Illustrator 24.3.0, SVG Export Plug-In . SVG Version: 6.00 Build 0)  -->
<svg version="1.1" id="图层_1" xmlns="http://www.w3.org/2000/svg" xmlns:xlink="http://www.w3.org/1999/xlink" x="0px" y="0px"
	 viewBox="0 0 1003.3 938" style="enable-background:new 0 0 1003.3 938;" xml:space="preserve">
<path d="M722.6,91L722.6,91c65.3,39.3,117.7,91.7,157,157l0,0c39.3,68,59,141.7,59,221s-19.7,153-59,221l0,0
	c-39.3,65.3-91.7,117.7-157,157l0,0c-68,39.3-141.7,59-221,59s-153-19.7-221-59l0,0c-65.3-39.3-117.7-91.7-157-157l0,0
	c-39.3-68-59-141.7-59-221s19.7-153,59-221l0,0c39.3-65.3,91.7-117.7,157-157l0,0c68-39.3,141.7-59,221-59l0,0
	C581,32,654.6,51.7,722.6,91z M689.6,791L689.6,791c56-33.3,100.7-78,134-134l0,0c34-58,51-120.7,51-188s-17-130-51-188l0,0
	c-33.3-56-78-100.7-134-134l0,0c-58-34-120.7-51-188-51s-130,17-188,51l0,0c-56,33.3-100.7,78-134,134l0,0c-34,58-51,120.7-51,188
	s17,130,51,188l0,0c33.3,56,78,100.7,134,134l0,0c58,34,120.7,51,188,51l0,0C569,842,631.6,825,689.6,791z M415.1,384.5
	c-6.3-6.3-9.5-13.8-9.5-22.5v-42l0,0c0-8.7,3.2-16.2,9.5-22.5s13.8-9.5,22.5-9.5s16.2,3.2,22.5,9.5s9.5,13.8,9.5,22.5v42l0,0
	c0,8.7-3.2,16.2-9.5,22.5s-13.8,9.5-22.5,9.5l0,0C429,394,421.5,390.8,415.1,384.5z M543.1,384.5c-6.3-6.3-9.5-13.8-9.5-22.5v-42
	l0,0c0-8.7,3.2-16.2,9.5-22.5s13.8-9.5,22.5-9.5s16.2,3.2,22.5,9.5s9.5,13.8,9.5,22.5v42l0,0c0,8.7-3.2,16.2-9.5,22.5
	s-13.8,9.5-22.5,9.5l0,0C557,394,549.5,390.8,543.1,384.5z M287.1,384.5c-6.3-6.3-9.5-13.8-9.5-22.5v-42l0,0
	c0-8.7,3.2-16.2,9.5-22.5s13.8-9.5,22.5-9.5s16.2,3.2,22.5,9.5s9.5,13.8,9.5,22.5v42l0,0c0,8.7-3.2,16.2-9.5,22.5
	s-13.8,9.5-22.5,9.5l0,0C301,394,293.5,390.8,287.1,384.5z M716.1,297.5c6.3,6.3,9.5,13.8,9.5,22.5v42l0,0c0,8.7-3.2,16.2-9.5,22.5
	s-13.8,9.5-22.5,9.5s-16.2-3.2-22.5-9.5s-9.5-13.8-9.5-22.5v-42l0,0c0-8.7,3.2-16.2,9.5-22.5s13.8-9.5,22.5-9.5l0,0
	C702.3,288,709.8,291.2,716.1,297.5z M415.1,534c-6.3-6.7-9.5-14-9.5-22v-43l0,0c0-8.7,3.2-16.2,9.5-22.5s13.8-9.5,22.5-9.5
	s16.2,3.2,22.5,9.5s9.5,13.8,9.5,22.5v43l0,0c0,8-3.2,15.3-9.5,22c-6.3,6.7-13.8,10-22.5,10l0,0C429,544,421.5,540.7,415.1,534z
	 M543.1,534c-6.3-6.7-9.5-14-9.5-22v-43l0,0c0-8.7,3.2-16.2,9.5-22.5s13.8-9.5,22.5-9.5s16.2,3.2,22.5,9.5s9.5,13.8,9.5,22.5v43l0,0
	c0,8-3.2,15.3-9.5,22c-6.3,6.7-13.8,10-22.5,10l0,0C557,544,549.5,540.7,543.1,534z M332.1,534c-6.3,6.7-13.8,10-22.5,10
	s-16.2-3.3-22.5-10c-6.3-6.7-9.5-14-9.5-22v-43l0,0c0-8.7,3.2-16.2,9.5-22.5s13.8-9.5,22.5-9.5s16.2,3.2,22.5,9.5s9.5,13.8,9.5,22.5
	v43l0,0C341.6,520,338.5,527.3,332.1,534z M716.1,446.5c6.3,6.3,9.5,13.8,9.5,22.5v43l0,0c0,8-3.2,15.3-9.5,22
	c-6.3,6.7-13.8,10-22.5,10s-16.2-3.3-22.5-10c-6.3-6.7-9.5-14-9.5-22v-43l0,0c0-8.7,3.2-16.2,9.5-22.5s13.8-9.5,22.5-9.5l0,0
	C702.3,437,709.8,440.2,716.1,446.5z M694.6,617.5c6.7,6.3,10,13.7,10,22c0,8.3-3.3,15.8-10,22.5c-6.7,6.7-14,10-22,10h-342l0,0
	c-8,0-15.3-3.3-22-10c-6.7-6.7-10-14.2-10-22.5c0-8.3,3.3-15.7,10-22c6.7-6.3,14-9.5,22-9.5h342l0,0
	C680.6,608,688,611.2,694.6,617.5z"/>
</svg>
