<?xml version="1.0" encoding="utf-8"?>
<!-- Generator: Adobe Illustrator 24.3.0, SVG Export Plug-In . SVG Version: 6.00 Build 0)  -->
<svg version="1.1" id="图层_1" xmlns="http://www.w3.org/2000/svg" xmlns:xlink="http://www.w3.org/1999/xlink" x="0px" y="0px"
	 viewBox="0 0 960 975.9" style="enable-background:new 0 0 960 975.9;" xml:space="preserve">
<path d="M488,851.9c2.3-0.7,4.8-2,7.5-4h1l0,0c74-47.3,141.7-102.3,203-165s114.7-131.3,160-206l0,0c25.3-38,38-80,38-126l0,0
	c0-40.7-10.3-78.5-31-113.5s-48.3-62.8-83-83.5s-72.7-31-114-31l0,0c-50.7,0-96,15-136,45l0,0c-21.3,16-39,34.7-53,56l0,0
	c-14.7-21.3-32.7-40-54-56l0,0c-40-30-85.3-45-136-45l0,0c-40.7,0-78.5,10.3-113.5,31s-62.8,48.5-83.5,83.5s-31,72.8-31,113.5l0,0
	c0,46,12.7,88,38,126l0,0c45.3,74.7,98.7,143.3,160,206s129,117.7,203,165h1l0,0c4.7,3.3,10,5,16,5l0,0
	C483.2,852.9,485.7,852.6,488,851.9z"/>
</svg>
