<?xml version="1.0" encoding="utf-8"?>
<!-- Generator: Adobe Illustrator 24.3.0, SVG Export Plug-In . SVG Version: 6.00 Build 0)  -->
<svg version="1.1" id="图层_1" xmlns="http://www.w3.org/2000/svg" xmlns:xlink="http://www.w3.org/1999/xlink" x="0px" y="0px"
	 viewBox="0 0 916.9 906.1" style="enable-background:new 0 0 916.9 906.1;" xml:space="preserve">
<path d="M777.4,104.6c39.3,23.7,70.7,55.5,94,95.5s35,83.7,35,131l0,0c0,38-8.3,75-25,111l0,0c-9.3,21.3-26,49.3-50,84l0,0l0,0
	c-38,55.3-100.3,118-187,188l0,0c-44.7,36-93.7,72.3-147,109l-6,3l0,0c-10.7,7.3-22,11-34,11s-23-3.7-33-11l-5-3l0,0
	c-53.3-36-102.7-72.3-148-109l0,0c-86-70-148-132.7-186-188l0,0l0,0c-24-34.7-40.7-62.7-50-84l0,0c-16.7-36-25-73-25-111l0,0
	c0-47.3,11.7-91.2,35-131.5s54.8-72.2,94.5-95.5s82.8-35,129.5-35l0,0c74,0,137,32.3,189,97l0,0c51.3-64.7,114.7-97,190-97l0,0
	C695.1,69.1,738.1,80.9,777.4,104.6z M823.4,418.1L823.4,418.1c12.7-28,19-56.3,19-85l0,0c0-36.7-8.8-70.2-26.5-100.5
	s-41.7-54.5-72-72.5s-63.5-27-99.5-27l0,0c-38.7,0-73,11-103,33l0,0c-28,20.7-50,49.3-66,86l0,0c-1.3,3.3-3.5,6.3-6.5,9
	s-6.5,3.8-10.5,3.5s-7.5-1.7-10.5-4s-5.2-5.2-6.5-8.5l0,0l0,0c-16-36-38-64.3-66-85l0,0c-30-22-64.3-33-103-33l0,0
	c-36,0-69.2,8.8-99.5,26.5s-54.3,41.8-72,72.5s-26.5,64-26.5,100l0,0c0,28.7,6.3,57,19,85l0,0c8.7,18.7,23.5,43.2,44.5,73.5
	c21,30.3,50.5,63.8,88.5,100.5l0,0c30.7,28.7,66,58.7,106,90l0,0c28.7,22.7,58.3,44.7,89,66l37,25l0,0c38-24.7,80-55,126-91l0,0
	c92-72,156.7-135.3,194-190l0,0C799.8,461.4,814.8,436.7,823.4,418.1z"/>
</svg>
