<?xml version="1.0" encoding="utf-8"?>
<!-- Generator: Adobe Illustrator 24.3.0, SVG Export Plug-In . SVG Version: 6.00 Build 0)  -->
<svg version="1.1" id="图层_1" xmlns="http://www.w3.org/2000/svg" xmlns:xlink="http://www.w3.org/1999/xlink" x="0px" y="0px"
	 viewBox="0 0 1057.9 1060.8" style="enable-background:new 0 0 1057.9 1060.8;" xml:space="preserve">
<path d="M943.9,283.4c6.3,23.7,6.7,47.3,1,71s-17.2,44.2-34.5,61.5l-247,247l-1-1l0,0c-17.3,14.7-37.3,24.7-60,30
	c-22.7,5.3-45,5.8-67,1.5c-22-4.3-41.3-13.5-58-27.5l-5-3l-57-57l0,0c-5.3-5.3-8-11.7-8-19c0-7.3,2.7-13.7,8-19c5.3-5.3,11.7-8,19-8
	s13.7,2.7,19,8l19,19v-1l3,4l32,32l0,0c10,9.3,22.8,15.5,38.5,18.5s31.5,2.3,47.5-2c16-4.3,29.3-11.8,40-22.5l239-239l0,0
	c15.3-15.3,22.8-34.7,22.5-58s-8.8-43-25.5-59l-70-71l0,0c-16-16-35.8-24.2-59.5-24.5s-43.2,7.2-58.5,22.5l-76,76l0,0
	c-4.7,4.7-10.8,7-18.5,7s-14.2-2.5-19.5-7.5s-8-11.3-8-19s2.7-14.2,8-19.5l76-75l0,0c17.3-17.3,37.8-28.8,61.5-34.5s47.3-5.3,71,1
	s44.2,18.2,61.5,35.5l71,70l0,0C925.8,238.9,937.6,259.7,943.9,283.4z M472.4,788.9c7.3,0,13.7,2.5,19,7.5s8,11.3,8,19
	c0,7.7-2.7,14.2-8,19.5l-76,76l0,0c-17.3,17.3-37.7,29-61,35s-46.5,6-69.5,0s-43.2-17.7-60.5-35l-76-76l0,0
	c-17.3-17.3-29-37.7-35-61c-6-23.3-6-46.5,0-69.5s17.7-43.2,35-60.5l248-248l0,0c17.3-17.3,37.5-29,60.5-35s46.2-6,69.5,0
	c23.3,6,43.3,17.7,60,35l58,57l0,0c4.7,5.3,7,11.7,7,19s-2.5,13.7-7.5,19s-11.3,8-19,8s-14.2-2.7-19.5-8l-57-57l0,0
	c-15.3-16-34.2-24-56.5-24c-22.3,0-41.5,8-57.5,24l-248,248l0,0c-16,16-24,35.2-24,57.5c0,22.3,8,41.2,24,56.5l76,77l0,0
	c16,15.3,35.2,23,57.5,23s41.5-7.7,57.5-23l19-19l57-58l0,0C458.8,791.2,465.1,788.9,472.4,788.9z"/>
</svg>
