<?xml version="1.0" encoding="utf-8"?>
<!-- Generator: Adobe Illustrator 24.3.0, SVG Export Plug-In . SVG Version: 6.00 Build 0)  -->
<svg version="1.1" id="图层_1" xmlns="http://www.w3.org/2000/svg" xmlns:xlink="http://www.w3.org/1999/xlink" x="0px" y="0px"
	 viewBox="0 0 1062.4 994.1" style="enable-background:new 0 0 1062.4 994.1;" xml:space="preserve">
<path d="M955.2,160.5c14,18.7,21,37.3,21,56v560l0,0c0,24.7-8.8,45.7-26.5,63c-17.7,17.3-38.8,26-63.5,26h-710l0,0
	c-24.7,0-45.8-8.7-63.5-26c-17.7-17.3-26.5-38.3-26.5-63v-558l0,0c0-24.7,8.8-45.8,26.5-63.5s38.8-26.5,63.5-26.5h714l-333,325
	l-251-235l0,0c-6.7-6-14.5-8.8-23.5-8.5s-16.7,4-23,11c-6.3,7-9.3,14.8-9,23.5s3.8,16.3,10.5,23l255,238l0,0c12,12,26.3,18,43,18
	s30-5.3,40-16L955.2,160.5L955.2,160.5z"/>
</svg>
