<?xml version="1.0" encoding="utf-8"?>
<!-- Generator: Adobe Illustrator 24.3.0, SVG Export Plug-In . SVG Version: 6.00 Build 0)  -->
<svg version="1.1" id="图层_1" xmlns="http://www.w3.org/2000/svg" xmlns:xlink="http://www.w3.org/1999/xlink" x="0px" y="0px"
	 viewBox="0 0 1074.5 981.9" style="enable-background:new 0 0 1074.5 981.9;" xml:space="preserve">
<path d="M359.3,113.5L359.3,113.5c-52.7,31.3-94.7,74-126,128l0,0c-32,54.7-48,114-48,178l0,0c0,58,15,117.3,45,178l0,0
	c28.7,57.3,70,114.7,124,172l0,0c30,32,67.7,66.7,113,104l29,24l13,8l0,0c3.3,1.3,6.3,3.7,9,7l0,0c5.3,2.7,11.3,4,18,4
	s12.7-1.3,18-4l15-11l0,0c8.7-4,21.3-13.3,38-28l0,0c45.3-37.3,83-72,113-104l0,0c112.7-122,169-238.7,169-350l0,0
	c0-64-16-123.3-48-178l0,0c-31.3-54-73.3-96.7-126-128l0,0c-55.3-32-114.7-48-178-48l0,0C473.9,65.5,414.6,81.5,359.3,113.5z
	 M595.3,305.5c18,10.7,32.3,25,43,43s16,37.3,16,58s-5.3,40-16,58s-25,32.3-43,43s-37.3,16-58,16s-40-5.3-58-16s-32.3-25-43-43
	s-16-37.3-16-58s5.3-40,16-58s25-32.3,43-43s37.3-16,58-16l0,0C557.9,289.5,577.3,294.8,595.3,305.5z"/>
</svg>
