<?xml version="1.0" encoding="utf-8"?>
<!-- Generator: Adobe Illustrator 24.3.0, SVG Export Plug-In . SVG Version: 6.00 Build 0)  -->
<svg version="1.1" id="图层_1" xmlns="http://www.w3.org/2000/svg" xmlns:xlink="http://www.w3.org/1999/xlink" x="0px" y="0px"
	 viewBox="0 0 960 981.9" style="enable-background:new 0 0 960 981.9;" xml:space="preserve">
<path d="M658,112.5L658,112.5c52.7,31.3,94.7,74,126,128l0,0c32,54.7,48,114,48,178l0,0c0,78.7-28,159.7-84,243l0,0
	c-40.7,60.7-93.3,119.7-158,177l0,0c-35.3,30.7-66.3,55-93,73l0,0c-4,4-9.7,6-17,6l0,0c-4.7,0-10.3-2-17-6l0,0
	c-11.3-6.7-31-21.3-59-44l0,0c-41.3-33.3-79.3-69-114-107l0,0c-47.3-51.3-84.7-103-112-155l0,0c-33.3-64-50-126.3-50-187l0,0
	c0-64,16-123.3,48-178l0,0c31.3-54,73.3-96.7,126-128l0,0c55.3-32,114.7-48,178-48l0,0C543.3,64.5,602.7,80.5,658,112.5z M584,758.5
	L584,758.5c52-50.7,93.3-101,124-151l0,0c40-65.3,60-127.7,60-187l0,0c0-52.7-13.3-101.3-40-146l0,0c-25.3-44-59.7-79-103-105l0,0
	c-44.7-26-93-39-145-39s-100.3,13-145,39l0,0c-43.3,26-77.7,61-103,105l0,0c-26.7,44.7-40,93.3-40,146l0,0c0,85.3,39.7,175,119,269
	l0,0c48,57.3,104.3,110,169,158l0,0C515.3,820.8,550,791.1,584,758.5z M549.5,317.5c21,12.7,37.8,29.5,50.5,50.5s19,44.2,19,69.5
	s-6.3,48.5-19,69.5c-12.7,21-29.5,37.8-50.5,50.5c-21,12.7-44.2,19-69.5,19c-25.3,0-48.5-6.3-69.5-19c-21-12.7-37.8-29.5-50.5-50.5
	c-12.7-21-19-44.2-19-69.5s6.3-48.5,19-69.5s29.5-37.8,50.5-50.5s44.2-19,69.5-19l0,0C505.3,298.5,528.5,304.8,549.5,317.5z
	 M532.5,490c15-15,22.5-32.5,22.5-52.5s-7.5-37.5-22.5-52.5S500,362.5,480,362.5s-37.5,7.5-52.5,22.5S405,417.5,405,437.5
	s7.5,37.5,22.5,52.5s32.5,22.5,52.5,22.5l0,0C500,512.5,517.5,505,532.5,490z"/>
</svg>
