<?xml version="1.0" encoding="utf-8"?>
<!-- Generator: Adobe Illustrator 24.3.0, SVG Export Plug-In . SVG Version: 6.00 Build 0)  -->
<svg version="1.1" id="图层_1" xmlns="http://www.w3.org/2000/svg" xmlns:xlink="http://www.w3.org/1999/xlink" x="0px" y="0px"
	 viewBox="0 0 1039.7 1001.6" style="enable-background:new 0 0 1039.7 1001.6;" xml:space="preserve">
<path d="M298.8,122.8L298.8,122.8c-65.3,39.3-117.7,91.7-157,157l0,0c-39.3,68-59,141.7-59,221s19.7,153,59,221l0,0
	c39.3,65.3,91.7,117.7,157,157l0,0c68,39.3,141.7,59,221,59s153-19.7,221-59l0,0c65.3-39.3,117.7-91.7,157-157l0,0
	c39.3-68,59-141.7,59-221s-19.7-153-59-221l0,0c-39.3-65.3-91.7-117.7-157-157l0,0c-68-39.3-141.7-59-221-59l0,0
	C440.5,63.8,366.8,83.5,298.8,122.8z M705.8,639.8c8,0,15.3,3.2,22,9.5s10,13.7,10,22s-2.8,15.5-8.5,21.5s-12.8,9.7-21.5,11h-376
	l0,0c-8.7,0-16.2-3.3-22.5-10s-9.5-14.2-9.5-22.5s2.8-15.5,8.5-21.5s12.8-9.3,21.5-10h2H705.8L705.8,639.8z M399.8,362.8
	c8,7.3,12.3,17,13,29v66l0,0c0,12-4.2,22.2-12.5,30.5s-18.2,12.5-29.5,12.5s-21-4-29-12s-12.7-17.7-14-29v-66l0,0
	c0-11.3,4.2-21.2,12.5-29.5s18.5-12.5,30.5-12.5l0,0C382.2,351.8,391.8,355.5,399.8,362.8z M698.3,362.8c7.7,7.3,12.2,17,13.5,29v66
	l0,0c0,12-4.2,22.2-12.5,30.5s-18.3,12.5-30,12.5s-21.5-4-29.5-12s-12.3-17.7-13-29v-66l0,0c0-11.3,4.2-21.2,12.5-29.5
	s18.2-12.5,29.5-12.5l0,0C680.8,351.8,690.7,355.5,698.3,362.8z"/>
</svg>
