<?xml version="1.0" encoding="utf-8"?>
<!-- Generator: Adobe Illustrator 24.3.0, SVG Export Plug-In . SVG Version: 6.00 Build 0)  -->
<svg version="1.1" id="图层_1" xmlns="http://www.w3.org/2000/svg" xmlns:xlink="http://www.w3.org/1999/xlink" x="0px" y="0px"
	 viewBox="0 0 1056.3 1036.5" style="enable-background:new 0 0 1056.3 1036.5;" xml:space="preserve">
<path d="M305.2,899.3L305.2,899.3c-66.7-38.7-119.3-91.3-158-158l0,0c-40.7-68.7-61-143-61-223s20.3-154.3,61-223l0,0
	c38.7-66.7,91.3-119.3,158-158l0,0c68.7-40.7,143-61,223-61s154.3,20.3,223,61l0,0c66.7,38.7,119.3,91.3,158,158l0,0
	c40.7,68.7,61,143,61,223s-20.3,154.3-61,223l0,0c-38.7,66.7-91.3,119.3-158,158l0,0c-68.7,40.7-143,61-223,61l0,0
	C448.2,960.3,373.8,939.9,305.2,899.3z M718.2,843.3L718.2,843.3c56.7-33.3,101.7-78.3,135-135l0,0c34-58.7,51-122,51-190
	s-17-131.3-51-190l0,0c-33.3-56.7-78.3-101.7-135-135l0,0c-58.7-34-121.8-51-189.5-51s-130.7,16.7-189,50s-104.2,79.2-137.5,137.5
	s-50,121.2-50,188.5s16.7,130.2,50,188.5s79.2,104.2,137.5,137.5s121.2,50,188.5,50l0,0C596.2,894.3,659.5,877.3,718.2,843.3z
	 M375.2,433.3L375.2,433.3z M330.2,407.3c4.7-8,11-14.2,19-18.5c8-4.3,16.5-6.5,25.5-6.5s17.5,2.2,25.5,6.5c8,4.3,14.3,10.5,19,18.5
	s7,16.5,7,25.5s-2.3,17.5-7,25.5s-11,14.3-19,19s-16.5,7-25.5,7s-17.5-2.3-25.5-7s-14.3-11-19-19s-7-16.3-7-25l0,0
	C323.2,423.9,325.5,415.3,330.2,407.3z M681.2,433.3L681.2,433.3z M637.2,407.3c4.7-8,11-14.2,19-18.5c8-4.3,16.5-6.5,25.5-6.5
	s17.5,2.2,25.5,6.5c8,4.3,14.3,10.5,19,18.5s7,16.5,7,25.5s-2.3,17.5-7,25.5s-11,14.3-19,19s-16.5,7-25.5,7s-17.5-2.3-25.5-7
	s-14.3-11-19-19s-7-16.3-7-25l0,0C630.2,423.9,632.5,415.3,637.2,407.3z M341.7,751.3c-5-2.7-9-6.7-12-12s-4.5-10.8-4.5-16.5
	s1.5-11,4.5-16s7-9,12-12s10.5-4.5,16.5-4.5h340l0,0c6,0,11.5,1.5,16.5,4.5s9,7,12,12s4.5,10.3,4.5,16s-1.5,11.2-4.5,16.5
	s-7,9.3-12,12s-10.5,4-16.5,4h-340l0,0C352.2,755.3,346.7,753.9,341.7,751.3z"/>
</svg>
