<?xml version="1.0" encoding="utf-8"?>
<!-- Generator: Adobe Illustrator 24.3.0, SVG Export Plug-In . SVG Version: 6.00 Build 0)  -->
<svg version="1.1" id="图层_1" xmlns="http://www.w3.org/2000/svg" xmlns:xlink="http://www.w3.org/1999/xlink" x="0px" y="0px"
	 viewBox="0 0 1039.7 1047.1" style="enable-background:new 0 0 1039.7 1047.1;" xml:space="preserve">
<path d="M519.8,81.6L519.8,81.6c80,0,154.3,20.3,223,61l0,0c66.7,38.7,119.3,91.3,158,158l0,0c40.7,68.7,61,143,61,223
	s-20.3,154.3-61,223l0,0c-38.7,66.7-91.3,119.3-158,158l0,0c-68.7,40.7-143,61-223,61s-154.3-20.3-223-61l0,0
	c-66.7-38.7-119.3-91.3-158-158l0,0c-40.7-68.7-61-143-61-223s20.3-154.3,61-223l0,0c38.7-66.7,91.3-119.3,158-158l0,0
	C365.5,101.9,439.8,81.6,519.8,81.6z M519.8,147.6L519.8,147.6c-67.3,0-130.2,16.7-188.5,50s-104.2,79.2-137.5,137.5
	s-50,121.2-50,188.5s16.7,130.2,50,188.5S273,816.2,331.3,849.6s121.3,50,189,50s130.8-17,189.5-51l0,0
	c56.7-33.3,101.7-78.3,135-135l0,0c34-58.7,51-122,51-190s-17-131.3-51-190l0,0c-33.3-56.7-78.3-101.7-135-135l0,0
	C651.2,164.6,587.8,147.6,519.8,147.6z M355.8,490.6L355.8,490.6h328c8.7,0,16.2,3.2,22.5,9.5s9.5,14.2,9.5,23.5
	c0,9.3-3.2,17.2-9.5,23.5c-6.3,6.3-13.8,9.5-22.5,9.5l0,0h-328c-8.7,0-16.2-3.2-22.5-9.5c-6.3-6.3-9.5-14.2-9.5-23.5
	c0-9.3,3.2-17.2,9.5-23.5S347.2,490.6,355.8,490.6z"/>
</svg>
