<?xml version="1.0" encoding="utf-8"?>
<!-- Generator: Adobe Illustrator 24.3.0, SVG Export Plug-In . SVG Version: 6.00 Build 0)  -->
<svg version="1.1" id="图层_1" xmlns="http://www.w3.org/2000/svg" xmlns:xlink="http://www.w3.org/1999/xlink" x="0px" y="0px"
	 viewBox="0 0 1066.9 1080" style="enable-background:new 0 0 1066.9 1080;" xml:space="preserve">
<path d="M533.5,977L533.5,977c-79.3,0-153-19.7-221-59l0,0c-65.3-39.3-117.7-91.7-157-157l0,0c-39.3-68-59-141.7-59-221
	s19.7-153,59-221l0,0c39.3-65.3,91.7-117.7,157-157l0,0c68-39.3,141.7-59,221-59s153,19.7,221,59l0,0c65.3,39.3,117.7,91.7,157,157
	l0,0c39.3,68,59,141.7,59,221s-19.7,153-59,221l0,0c-39.3,65.3-91.7,117.7-157,157l0,0C686.5,957.3,612.8,977,533.5,977z M533.5,167
	L533.5,167c-67.3,0-130,17-188,51l0,0c-56,33.3-100.7,78-134,134l0,0c-34,58-51,120.7-51,188s17,130,51,188l0,0
	c33.3,56,78,100.7,134,134l0,0c58,34,120.7,51,188,51s130-17,188-51l0,0c56-33.3,100.7-78,134-134l0,0c34-58,51-120.7,51-188
	s-17-130-51-188l0,0c-33.3-56-78-100.7-134-134l0,0C663.5,184,600.8,167,533.5,167z M533.5,540L533.5,540z M490.5,540L490.5,540
	c0-7.3,2-14.3,6-21s9.3-12,16-16c6.7-4,13.7-6,21-6c7.3,0,14.3,2,21,6s12,9.3,16,16s6,13.7,6,21s-2,14.3-6,21s-9.3,12-16,16
	s-13.7,6-21,6c-7.3,0-14.3-2-21-6c-6.7-4-12-9.3-16-16S490.5,547.3,490.5,540z M362.5,540L362.5,540z M320.5,540L320.5,540
	c0-7.3,1.8-14.3,5.5-21s8.8-12,15.5-16s13.8-6,21.5-6s14.8,2,21.5,6s11.8,9.3,15.5,16s5.5,13.7,5.5,21s-1.8,14.3-5.5,21
	s-8.8,12-15.5,16s-13.8,6-21.5,6s-14.8-2-21.5-6s-11.8-9.3-15.5-16S320.5,547.3,320.5,540z M704.5,540L704.5,540z M661.5,540
	L661.5,540c0-7.3,1.8-14.3,5.5-21s8.8-12,15.5-16s13.8-6,21.5-6s14.8,2,21.5,6s11.8,9.3,15.5,16s5.5,13.7,5.5,21s-1.8,14.3-5.5,21
	s-8.8,12-15.5,16s-13.8,6-21.5,6s-14.8-2-21.5-6s-11.8-9.3-15.5-16S661.5,547.3,661.5,540z"/>
</svg>
