<?xml version="1.0" encoding="utf-8"?>
<!-- Generator: Adobe Illustrator 24.3.0, SVG Export Plug-In . SVG Version: 6.00 Build 0)  -->
<svg version="1.1" id="图层_1" xmlns="http://www.w3.org/2000/svg" xmlns:xlink="http://www.w3.org/1999/xlink" x="0px" y="0px"
	 viewBox="0 0 1153.3 1133.5" style="enable-background:new 0 0 1153.3 1133.5;" xml:space="preserve">
<path d="M737.4,714.5L737.4,714.5c48.7-28,87-66.3,115-115l0,0c29.3-49.3,44-103,44-161s-14.7-111.7-44-161l0,0
	c-28-48.7-66.3-87-115-115l0,0c-49.3-29.3-103-44-161-44s-111.7,14.7-161,44l0,0c-48.7,28-87,66.3-115,115l0,0
	c-29.3,49.3-44,103-44,161s14.7,111.7,44,161l0,0c28,48.7,66.3,87,115,115l0,0c49.3,29.3,103,44,161,44l0,0
	C634.4,758.5,688.1,743.8,737.4,714.5z M704.4,217c39.3,23,70.5,54.2,93.5,93.5s34.5,82,34.5,128s-11.5,88.7-34.5,128
	c-23,39.3-54.2,70.5-93.5,93.5s-82,34.5-128,34.5s-88.7-11.5-128-34.5s-70.5-54.2-93.5-93.5c-23-39.3-34.5-82-34.5-128
	s11.5-88.7,34.5-128s54.2-70.5,93.5-93.5s82-34.5,128-34.5l0,0C622.4,182.5,665.1,194,704.4,217z M969.9,1005.5
	c6.3-6,9.8-13.5,10.5-22.5s-2.3-16.5-9-22.5l0,0c-52-54.7-112-96.7-180-126s-139.7-44-215-44s-147,14.7-215,44s-128,71.7-180,127
	l0,0c-6,6.7-8.8,14.3-8.5,23c0.3,8.7,3.7,16,10,22c6.3,6,13.8,8.8,22.5,8.5c8.7-0.3,16-3.8,22-10.5l0,0
	c46.7-48.7,99.8-85.8,159.5-111.5c59.7-25.7,122.8-38.5,189.5-38.5s129.8,12.8,189.5,38.5c59.7,25.7,112.2,62.8,157.5,111.5l0,0
	c6.7,6.7,14.7,10,24,10l0,0C956.1,1014.5,963.6,1011.5,969.9,1005.5z"/>
</svg>
