<?xml version="1.0" encoding="utf-8"?>
<!-- Generator: Adobe Illustrator 24.3.0, SVG Export Plug-In . SVG Version: 6.00 Build 0)  -->
<svg version="1.1" id="图层_1" xmlns="http://www.w3.org/2000/svg" xmlns:xlink="http://www.w3.org/1999/xlink" x="0px" y="0px"
	 viewBox="0 0 1053.3 1028.9" style="enable-background:new 0 0 1053.3 1028.9;" xml:space="preserve">
<path d="M524.7,102.5L524.7,102.5c-20.7,0-43.7,12.3-69,37l0,0l-182,183h-83c-26.7,0-49.3,9.3-68,28c-18.7,18.7-28,41.3-28,68l0,0
	v192c0,26.7,9.3,49.3,28,68s41.3,28,68,28l0,0h83l182,183c24.7,24.7,47.7,37,69,37l0,0c13.3,0,24.7-4.7,34-14l0,0
	c10.7-10.7,16-26,16-46l0,0v-704c0-20.7-5.3-36.3-16-47l0,0C549.3,106.8,538,102.5,524.7,102.5z M286.7,642.5h-96
	c-8.7,0-16.2-3.2-22.5-9.5c-6.3-6.3-9.5-13.8-9.5-22.5l0,0v-192c0-8.7,3.2-16.2,9.5-22.5s13.8-9.5,22.5-9.5l0,0h96
	c8.7,0,16.3-3,23-9l0,0l192-192l9-9v676l-9-9l-192-192C303,645.5,295.3,642.5,286.7,642.5L286.7,642.5z M686.7,296.5L686.7,296.5
	c-7.3,0-13.7,2-19,6l0,0c-7.3,4.7-11.7,11.5-13,20.5s0.7,16.8,6,23.5l0,0l12,18c21.3,28.7,36,51,44,67l0,0c12,25.3,18,53.2,18,83.5
	c0,30.3-5.7,57.5-17,81.5l0,0c-6.7,15.3-20,36.3-40,63l0,0l-17,23c-5.3,6.7-7.3,14.5-6,23.5s5.7,16,13,21s15.3,6.8,24,5.5
	s15.7-5.7,21-13l0,0l16-21c15.3-20.7,26.3-36.7,33-48l0,0c12-19.3,20.7-38.7,26-58l0,0c7.3-24,11-49.8,11-77.5
	c0-27.7-3.7-53.5-11-77.5l0,0c-6.7-20-16-40.3-28-61l0,0c-7.3-12-19-28.7-35-50l0,0l-12-17C706,300.8,697.3,296.5,686.7,296.5z
	 M794.7,187.5L794.7,187.5c-8,0-15.2,2.8-21.5,8.5c-6.3,5.7-9.7,12.8-10,21.5c-0.3,8.7,2.2,16.3,7.5,23l0,0
	c38.7,44,67.3,84.3,86,121l0,0c25.3,48.7,38,99.7,38,153c0,53.3-12.7,104.3-38,153l0,0c-18.7,36.7-47.3,77-86,121l0,0
	c-5.3,6.7-7.8,14.3-7.5,23s3.8,16,10.5,22s14.5,8.7,23.5,8s16.5-4.3,22.5-11l0,0c42-48.7,73.7-94,95-136l0,0
	c29.3-57.3,44-117.3,44-180s-14.7-122.7-44-180l0,0c-21.3-42-53-87.3-95-136l0,0C813,191.1,804.7,187.5,794.7,187.5z"/>
</svg>
