<?xml version="1.0" encoding="utf-8"?>
<!-- Generator: Adobe Illustrator 24.3.0, SVG Export Plug-In . SVG Version: 6.00 Build 0)  -->
<svg version="1.1" id="图层_1" xmlns="http://www.w3.org/2000/svg" xmlns:xlink="http://www.w3.org/1999/xlink" x="0px" y="0px"
	 viewBox="0 0 1074.5 1048.6" style="enable-background:new 0 0 1074.5 1048.6;" xml:space="preserve">
<path d="M237.3,944.3h600c22,0,42.2-5.3,60.5-16s32.8-25.2,43.5-43.5s16-38.5,16-60.5l0,0v-600c0-22-5.3-42.2-16-60.5
	s-25.2-32.8-43.5-43.5s-38.5-16-60.5-16l0,0h-600c-22,0-42.2,5.3-60.5,16s-32.8,25.2-43.5,43.5c-10.7,18.3-16,38.5-16,60.5l0,0v600
	c0,22,5.3,42.2,16,60.5c10.7,18.3,25.2,32.8,43.5,43.5S215.3,944.3,237.3,944.3L237.3,944.3z M841.3,884.3h-4h-600
	c-16,0-29.8-5.5-41.5-16.5s-17.8-24.2-18.5-39.5l0,0v-604c0-16,5.5-29.8,16.5-41.5c11-11.7,24.2-17.8,39.5-18.5l0,0h604
	c16,0,29.8,5.5,41.5,16.5s17.8,24.2,18.5,39.5l0,0v604c0,16-5.5,29.8-16.5,41.5S856.6,883.6,841.3,884.3L841.3,884.3z M305.3,684.3
	h44c2,0,3.8-0.8,5.5-2.5s2.5-3.5,2.5-5.5l0,0v-304c0-2-0.8-3.8-2.5-5.5c-1.7-1.7-3.5-2.5-5.5-2.5l0,0h-44c-2,0-3.8,0.8-5.5,2.5
	c-1.7,1.7-2.5,3.5-2.5,5.5l0,0v304c0,2,0.8,3.8,2.5,5.5S303.3,684.3,305.3,684.3L305.3,684.3z M445.3,684.3h44c2,0,3.8-0.8,5.5-2.5
	s2.5-3.5,2.5-5.5l0,0v-304c0-2-0.8-3.8-2.5-5.5c-1.7-1.7-3.5-2.5-5.5-2.5l0,0h-44c-2,0-3.8,0.8-5.5,2.5c-1.7,1.7-2.5,3.5-2.5,5.5
	l0,0v304c0,2,0.8,3.8,2.5,5.5S443.3,684.3,445.3,684.3L445.3,684.3z M585.3,684.3h44c2,0,3.8-0.8,5.5-2.5s2.5-3.5,2.5-5.5l0,0v-304
	c0-2-0.8-3.8-2.5-5.5c-1.7-1.7-3.5-2.5-5.5-2.5l0,0h-44c-2,0-3.8,0.8-5.5,2.5c-1.7,1.7-2.5,3.5-2.5,5.5l0,0v304c0,2,0.8,3.8,2.5,5.5
	S583.3,684.3,585.3,684.3L585.3,684.3z M725.3,684.3h44c2,0,3.8-0.8,5.5-2.5s2.5-3.5,2.5-5.5l0,0v-304c0-2-0.8-3.8-2.5-5.5
	c-1.7-1.7-3.5-2.5-5.5-2.5l0,0h-44c-2,0-3.8,0.8-5.5,2.5c-1.7,1.7-2.5,3.5-2.5,5.5l0,0v304c0,2,0.8,3.8,2.5,5.5
	S723.3,684.3,725.3,684.3L725.3,684.3z"/>
</svg>
