<?xml version="1.0" encoding="utf-8"?>
<!-- Generator: Adobe Illustrator 24.3.0, SVG Export Plug-In . SVG Version: 6.00 Build 0)  -->
<svg version="1.1" id="图层_1" xmlns="http://www.w3.org/2000/svg" xmlns:xlink="http://www.w3.org/1999/xlink" x="0px" y="0px"
	 viewBox="0 0 1062.4 1036.5" style="enable-background:new 0 0 1062.4 1036.5;" xml:space="preserve">
<path d="M531.2,955.3L531.2,955.3c-79.3,0-153-19.7-221-59l0,0c-65.3-39.3-117.7-91.7-157-157l0,0c-39.3-68-59-141.7-59-221
	s19.7-153,59-221l0,0c39.3-65.3,91.7-117.7,157-157l0,0c68-39.3,141.7-59,221-59s153,19.7,221,59l0,0c65.3,39.3,117.7,91.7,157,157
	l0,0c39.3,68,59,141.7,59,221s-19.7,153-59,221l0,0c-39.3,65.3-91.7,117.7-157,157l0,0C684.2,935.6,610.5,955.3,531.2,955.3z
	 M531.2,145.3L531.2,145.3c-67.3,0-130,17-188,51l0,0c-56,33.3-100.7,78-134,134l0,0c-34,58-51,120.7-51,188s17,130,51,188l0,0
	c33.3,56,78,100.7,134,134l0,0c58,34,120.7,51,188,51s130-17,188-51l0,0c56-33.3,100.7-78,134-134l0,0c34-58,51-120.7,51-188
	s-17-130-51-188l0,0c-33.3-56-78-100.7-134-134l0,0C661.2,162.3,598.5,145.3,531.2,145.3z M727.2,565.3L727.2,565.3l-234,134
	c-8.7,4.7-17.3,7-26,7l0,0c-14.7,0-27.2-5.2-37.5-15.5s-15.5-23.2-15.5-38.5l0,0v-268c0-10.7,2-19.3,6-26l0,0
	c5.3-8.7,12.2-15.5,20.5-20.5s17-7.5,26-7.5s17.8,2.3,26.5,7l0,0l234,134c8.7,4,15,10.3,19,19l0,0c7.3,14.7,9,28.3,5,41l0,0
	C749.2,544.6,741.2,555.9,727.2,565.3z M680.2,518.3l-202-115v230L680.2,518.3z"/>
</svg>
