<?xml version="1.0" encoding="utf-8"?>
<!-- Generator: Adobe Illustrator 24.3.0, SVG Export Plug-In . SVG Version: 6.00 Build 0)  -->
<svg version="1.1" id="图层_1" xmlns="http://www.w3.org/2000/svg" xmlns:xlink="http://www.w3.org/1999/xlink" x="0px" y="0px"
	 viewBox="0 0 895 884.9" style="enable-background:new 0 0 895 884.9;" xml:space="preserve">
<path d="M799.3,473L799.3,473l-317,2v318c0,8.7-3.2,16.2-9.5,22.5s-13.8,9.5-22.5,9.5c-8.7,0-16.2-3.2-22.5-9.5s-9.5-13.8-9.5-22.5
	l0,0V475l-322,1c-9.3,0-17-3.2-23-9.5s-9.2-13.8-9.5-22.5c-0.3-8.7,2.7-16.2,9-22.5s13.8-9.5,22.5-9.5l0,0l323-1V92
	c0-9.3,3.2-17,9.5-23s13.8-9,22.5-9c8.7,0,16.2,3,22.5,9s9.5,13.7,9.5,23l0,0v319l317-2c8.7,0,16.2,3.2,22.5,9.5s9.5,14,9.5,23
	s-3,16.5-9,22.5S808.6,473,799.3,473z"/>
</svg>
