<?xml version="1.0" encoding="utf-8"?>
<!-- Generator: Adobe Illustrator 24.3.0, SVG Export Plug-In . SVG Version: 6.00 Build 0)  -->
<svg version="1.1" id="图层_1" xmlns="http://www.w3.org/2000/svg" xmlns:xlink="http://www.w3.org/1999/xlink" x="0px" y="0px"
	 viewBox="0 0 954 981.9" style="enable-background:new 0 0 954 981.9;" xml:space="preserve">
<path d="M477,49L477,49c80,0,154.3,20.3,223,61l0,0c66.7,38.7,119.3,91.3,158,158l0,0c40.7,68.7,61,143,61,223s-20.3,154.3-61,223
	l0,0c-38.7,66.7-91.3,119.3-158,158l0,0c-68.7,40.7-143,61-223,61s-154.3-20.3-223-61l0,0c-66.7-38.7-119.3-91.3-158-158l0,0
	c-40.7-68.7-61-143-61-223s20.3-154.3,61-223l0,0c38.7-66.7,91.3-119.3,158-158l0,0C322.7,69.3,397,49,477,49z M477,115L477,115
	c-67.3,0-130.2,16.7-188.5,50S184.3,244.1,151,302.5S101,423.6,101,491s16.7,130.2,50,188.5S230.2,783.6,288.5,817s121.3,50,189,50
	s130.8-17,189.5-51l0,0c56.7-33.3,101.7-78.3,135-135l0,0c34-58.7,51-122,51-190s-17-131.3-51-190l0,0
	c-33.3-56.7-78.3-101.7-135-135l0,0C608.3,132,545,115,477,115z M313,524h131v131c0,8.7,3.2,16.2,9.5,22.5s14.2,9.5,23.5,9.5
	c9.3,0,17.2-3.2,23.5-9.5s9.5-13.8,9.5-22.5l0,0V524h131c8.7,0,16.2-3.2,22.5-9.5c6.3-6.3,9.5-14.2,9.5-23.5s-3.2-17.2-9.5-23.5
	S649.7,458,641,458l0,0H510V327c0-8.7-3.2-16.2-9.5-22.5c-6.3-6.3-14.2-9.5-23.5-9.5c-9.3,0-17.2,3.2-23.5,9.5
	c-6.3,6.3-9.5,13.8-9.5,22.5l0,0v131H313c-8.7,0-16.2,3.2-22.5,9.5S281,481.6,281,491s3.2,17.2,9.5,23.5
	C296.8,520.8,304.3,524,313,524L313,524z"/>
</svg>
