<?xml version="1.0" encoding="utf-8"?>
<!-- Generator: Adobe Illustrator 24.3.0, SVG Export Plug-In . SVG Version: 6.00 Build 0)  -->
<svg version="1.1" id="图层_1" xmlns="http://www.w3.org/2000/svg" xmlns:xlink="http://www.w3.org/1999/xlink" x="0px" y="0px"
	 viewBox="0 0 1103.3 1080" style="enable-background:new 0 0 1103.3 1080;" xml:space="preserve">
<path d="M330.7,162L330.7,162c-65.3,39.3-117.7,91.7-157,157l0,0c-39.3,68-59,141.7-59,221s19.7,153,59,221l0,0
	c39.3,65.3,91.7,117.7,157,157l0,0c68,39.3,141.7,59,221,59s153-19.7,221-59l0,0c65.3-39.3,117.7-91.7,157-157l0,0
	c39.3-68,59-141.7,59-221s-19.7-153-59-221l0,0c-39.3-65.3-91.7-117.7-157-157l0,0c-68-39.3-141.7-59-221-59l0,0
	C472.3,103,398.7,122.7,330.7,162z M573.2,452.5c5.7,5.7,9.2,12.8,10.5,21.5v301l0,0c0,8-3.2,15.3-9.5,22s-13.8,10-22.5,10
	c-8.7,0-15.8-2.8-21.5-8.5c-5.7-5.7-9.2-12.8-10.5-21.5V476l0,0c0-8.7,3.2-16.2,9.5-22.5c6.3-6.3,13.8-9.5,22.5-9.5l0,0
	C560.3,444,567.5,446.8,573.2,452.5z M582.2,296.5c8.3,8.3,12.5,18.3,12.5,30s-4.2,21.7-12.5,30S563.7,369,551.7,369
	s-22.2-4.2-30.5-12.5c-8.3-8.3-12.5-18.3-12.5-30s4.2-21.7,12.5-30c8.3-8.3,18.5-12.5,30.5-12.5l0,0
	C563.7,284,573.8,288.2,582.2,296.5z"/>
</svg>
