<?xml version="1.0" encoding="utf-8"?>
<!-- Generator: Adobe Illustrator 24.3.0, SVG Export Plug-In . SVG Version: 6.00 Build 0)  -->
<svg version="1.1" id="图层_1" xmlns="http://www.w3.org/2000/svg" xmlns:xlink="http://www.w3.org/1999/xlink" x="0px" y="0px"
	 viewBox="0 0 1117 1080" style="enable-background:new 0 0 1117 1080;" xml:space="preserve">
<path d="M721.5,293.5c-9.3,0-17,3.2-23,9.5s-9,14.2-9,23.5s3.3,17,10,23s14.3,9,23,9l171-4l0,0c14-0.7,26-5.8,36-15.5
	s15.3-21.5,16-35.5l9-172l0,0c0.7-8.7-2.2-16.3-8.5-23s-14-10.3-23-11s-16.8,2-23.5,8s-10.3,13.7-11,23l-5,112l0,0
	c-42-44.7-91.2-79.5-147.5-104.5S620.5,98.6,558.5,98.6l0,0c-80,0-154.3,20.3-223,61l0,0c-66.7,38.7-119.3,91.3-158,158l0,0
	c-40.7,68.7-61,143-61,223s20.3,154.3,61,223l0,0c38.7,66.7,91.3,119.3,158,158l0,0c68.7,40.7,143,61,223,61s154.3-20.3,223-61l0,0
	c66.7-38.7,119.3-91.3,158-158l0,0c40.7-68.7,61-143,61-223l0,0c0-6-1.5-11.5-4.5-16.5s-7-9-12-12s-10.5-4.5-16.5-4.5
	S956,509,951,512s-9,7-12,12s-4.5,10.5-4.5,16.5l0,0c0,68-17,131.3-51,190l0,0c-33.3,56.7-78.3,101.7-135,135l0,0
	c-58.7,34-122,51-190,51s-131.3-17-190-51l0,0c-56.7-33.3-101.7-78.3-135-135l0,0c-34-58.7-51-122-51-190s17-131.3,51-190l0,0
	c33.3-56.7,78.3-101.7,135-135l0,0c58.7-34,122-51,190-51l0,0c54,0,105.5,11,154.5,33s91.2,53,126.5,93L721.5,293.5L721.5,293.5z"/>
</svg>
