<?xml version="1.0" encoding="utf-8"?>
<!-- Generator: Adobe Illustrator 24.3.0, SVG Export Plug-In . SVG Version: 6.00 Build 0)  -->
<svg version="1.1" id="图层_1" xmlns="http://www.w3.org/2000/svg" xmlns:xlink="http://www.w3.org/1999/xlink" x="0px" y="0px"
	 viewBox="0 0 1050.3 1060.8" style="enable-background:new 0 0 1050.3 1060.8;" xml:space="preserve">
<path d="M87.9,888.4L87.9,888.4c8,0,15.2-2,21.5-6s10.5-9.3,12.5-16l0,0c48.7-124.7,117.3-200.3,206-227l0,0
	c29.3-8.7,62.3-15.3,99-20l0,0c32-3.3,73.7-5.7,125-7v197l0,0c0,9.3,3.3,17.3,10,24c6.7,6.7,15,10.2,25,10.5c10,0.3,18.7-2.5,26-8.5
	l350-307l0,0c6.7-6.7,9.8-14.8,9.5-24.5s-4.5-17.8-12.5-24.5l-347-298l0,0c-6.7-6-15-9-25-9s-18.5,3.5-25.5,10.5
	s-10.5,15.2-10.5,24.5v198l0,0c-88,4-156,11.3-204,22l0,0c-64.7,15.3-116,41.3-154,78l0,0c-50.7,48-85,105.7-103,173l0,0
	c-9.3,36.7-13.7,78.3-13,125l0,0c0,3.3,0,5.7,0,7v78H87.9z"/>
</svg>
