<?xml version="1.0" encoding="utf-8"?>
<!-- Generator: Adobe Illustrator 24.3.0, SVG Export Plug-In . SVG Version: 6.00 Build 0)  -->
<svg version="1.1" id="图层_1" xmlns="http://www.w3.org/2000/svg" xmlns:xlink="http://www.w3.org/1999/xlink" x="0px" y="0px"
	 viewBox="0 0 1065.4 1054.7" style="enable-background:new 0 0 1065.4 1054.7;" xml:space="preserve">
<path d="M650.7,679.3c-6,6.7-13.3,10-22,10l0,0c-3.3,0-7.2-0.8-11.5-2.5c-4.3-1.7-7.8-4.2-10.5-7.5l-205-205l-295,295l0,0
	c-6,6-13.3,9-22,9s-16.2-3.2-22.5-9.5c-6.3-6.3-9.5-13.7-9.5-22c0-8.3,3.3-15.8,10-22.5l316-317l0,0c6.7-6,14.3-9,23-9l0,0
	c3.3,0,7.2,0.8,11.5,2.5s7.8,3.8,10.5,6.5l205,205l272-272h-176l0,0c-9.3,0-17-3-23-9s-9-13.7-9-23s3-17,9-23s13.7-9,23-9h224l0,0
	c17.3,0,32.3,6.3,45,19s19,27.7,19,45v224l0,0c0,9.3-3,17-9,23s-13.7,9-23,9s-17-3-23-9s-9-13.7-9-23v-182L650.7,679.3L650.7,679.3z
	"/>
</svg>
