<?xml version="1.0" encoding="utf-8"?>
<!-- Generator: Adobe Illustrator 24.3.0, SVG Export Plug-In . SVG Version: 6.00 Build 0)  -->
<svg version="1.1" id="图层_1" xmlns="http://www.w3.org/2000/svg" xmlns:xlink="http://www.w3.org/1999/xlink" x="0px" y="0px"
	 viewBox="0 0 1085.1 1080" style="enable-background:new 0 0 1085.1 1080;" xml:space="preserve">
<path d="M182.6,392L182.6,392V247c0-17.3,6.2-32.5,18.5-45.5s27.5-20.2,45.5-21.5l0,0h148c2,0,3.8-0.8,5.5-2.5s2.5-3.5,2.5-5.5l0,0
	v-44c0-2-0.8-3.8-2.5-5.5c-1.7-1.7-3.5-2.5-5.5-2.5l0,0h-139c-18,0-35,3.3-51,10s-30.3,16.3-43,29c-12.7,12.7-22.3,27-29,43
	c-6.7,16-10,33-10,51l0,0v139c0,2,0.8,3.8,2.5,5.5s3.5,2.5,5.5,2.5l0,0h44c2,0,3.8-0.8,5.5-2.5S182.6,394,182.6,392z M962.6,392
	L962.6,392V253c0-24-6-46.2-18-66.5S916.4,150,896.1,138s-42.5-18-66.5-18l0,0h-139c-2,0-3.8,0.8-5.5,2.5c-1.7,1.7-2.5,3.5-2.5,5.5
	l0,0v44c0,2,0.8,3.8,2.5,5.5s3.5,2.5,5.5,2.5l0,0h145c17.3,0,32.5,6.2,45.5,18.5s20.2,27.5,21.5,45.5l0,0v148c0,2,0.8,3.8,2.5,5.5
	s3.5,2.5,5.5,2.5l0,0h44c2,0,3.8-0.8,5.5-2.5S962.6,394,962.6,392z M962.6,552L962.6,552v-44c0-2-0.8-3.8-2.5-5.5s-3.5-2.5-5.5-2.5
	l0,0h-824c-2,0-3.8,0.8-5.5,2.5s-2.5,3.5-2.5,5.5l0,0v44c0,2,0.8,3.8,2.5,5.5s3.5,2.5,5.5,2.5l0,0h824c2,0,3.8-0.8,5.5-2.5
	S962.6,554,962.6,552z M402.6,952L402.6,952v-44c0-2-0.8-3.8-2.5-5.5s-3.5-2.5-5.5-2.5l0,0h-144c-18,0-33.5-6.2-46.5-18.5
	S183.9,854,182.6,836l0,0V688c0-2-0.8-3.8-2.5-5.5s-3.5-2.5-5.5-2.5l0,0h-44c-2,0-3.8,0.8-5.5,2.5s-2.5,3.5-2.5,5.5l0,0v139
	c0,24,6,46.2,18,66.5s28.2,36.5,48.5,48.5s42.5,18,66.5,18l0,0h139c2,0,3.8-0.8,5.5-2.5S402.6,954,402.6,952z M690.6,960h139
	c24,0,46.2-6,66.5-18s36.5-28.2,48.5-48.5s18-42.5,18-66.5l0,0V688c0-2-0.8-3.8-2.5-5.5s-3.5-2.5-5.5-2.5l0,0h-44
	c-2,0-3.8,0.8-5.5,2.5s-2.5,3.5-2.5,5.5l0,0v145c0,17.3-6.2,32.5-18.5,45.5s-27.5,20.2-45.5,21.5l0,0h-148c-2,0-3.8,0.8-5.5,2.5
	s-2.5,3.5-2.5,5.5l0,0v44c0,2,0.8,3.8,2.5,5.5S688.6,960,690.6,960L690.6,960z"/>
</svg>
