<?xml version="1.0" encoding="utf-8"?>
<!-- Generator: Adobe Illustrator 24.3.0, SVG Export Plug-In . SVG Version: 6.00 Build 0)  -->
<svg version="1.1" id="图层_1" xmlns="http://www.w3.org/2000/svg" xmlns:xlink="http://www.w3.org/1999/xlink" x="0px" y="0px"
	 viewBox="0 0 1057.9 1010.7" style="enable-background:new 0 0 1057.9 1010.7;" xml:space="preserve">
<path d="M977.7,923.4c-0.3,8.7-3.7,16-10,22s-14,9-23,9s-16.5-3.3-22.5-10l-166-177l-2-4l-3-2l0,0c-6.7-6-10-13.5-10-22.5
	s3-16.5,9-22.5l0,0c31.3-33.3,55.5-71,72.5-113s25.5-85.7,25.5-131l0,0c0-64-16-123.3-48-178l0,0c-31.3-52.7-73.7-94.7-127-126l0,0
	c-54.7-32-113.8-48-177.5-48s-122.8,16-177.5,48l0,0c-52.7,31.3-94.7,73.3-126,126l0,0c-32,54.7-48,113.8-48,177.5
	s16,122.8,48,177.5l0,0c31.3,53.3,73.3,95.7,126,127l0,0c54.7,32,114,48,178,48l0,0c50.7,0,99-10.7,145-32l0,0
	c8-3.3,16.2-3.5,24.5-0.5s14.3,8.5,18,16.5s4,16.2,1,24.5c-3,8.3-8.5,14.5-16.5,18.5l0,0c-54.7,24.7-112,37-172,37l0,0
	c-75.3,0-145.3-19-210-57l0,0c-62.7-36.7-112.3-86.3-149-149l0,0c-38-64.7-57-134.7-57-210s19-145.3,57-210l0,0
	c36.7-62.7,86.3-112.3,149-149l0,0c64.7-38,134.7-57,210-57s145.3,19,210,57l0,0c62.7,36.7,112.3,86.3,149,149l0,0
	c38,64.7,57,134.7,57,210l0,0c0,48.7-8.3,95.7-25,141s-40.3,86.7-71,124l153,163l0,0C975.2,907,978,914.7,977.7,923.4z"/>
</svg>
