<?xml version="1.0" encoding="utf-8"?>
<!-- Generator: Adobe Illustrator 24.3.0, SVG Export Plug-In . SVG Version: 6.00 Build 0)  -->
<svg version="1.1" id="图层_1" xmlns="http://www.w3.org/2000/svg" xmlns:xlink="http://www.w3.org/1999/xlink" x="0px" y="0px"
	 viewBox="0 0 1092.7 1054.7" style="enable-background:new 0 0 1092.7 1054.7;" xml:space="preserve">
<path d="M747.9,375.8c-22.3-13.7-39.8-31.5-52.5-53.5l-291,112l0,0c6.7,17.3,10,35,10,53l0,0c0,29.3-8,56-24,80l199,132l0,0
	c13.3-12.7,28.7-22.7,46-30c17.3-7.3,35.7-11,55-11l0,0c26,0,50,6.5,72,19.5s39.5,30.5,52.5,52.5s19.5,46.2,19.5,72.5
	c0,26.3-6.5,50.5-19.5,72.5s-30.5,39.5-52.5,52.5s-46,19.5-72,19.5s-50.2-6.5-72.5-19.5s-39.8-30.5-52.5-52.5s-19-46.3-19-73l0,0
	c0-20.7,4.3-40.7,13-60l-206-137l0,0c-24.7,18-52.3,27-83,27l0,0c-26,0-50.2-6.5-72.5-19.5s-39.8-30.5-52.5-52.5
	c-12.7-22-19-46.2-19-72.5s6.3-50.5,19-72.5c12.7-22,30.2-39.5,52.5-52.5s46.5-19.5,72.5-19.5l0,0c20,0,39.2,4,57.5,12
	s34.2,19.3,47.5,34l303-117l0,0c-0.7-7.3-1-14.3-1-21l0,0c0-26,6.5-50,19.5-72s30.5-39.5,52.5-52.5s46-19.5,72-19.5
	s50.2,6.5,72.5,19.5s40,30.5,53,52.5s19.5,46,19.5,72s-6.5,50.2-19.5,72.5s-30.7,40-53,53s-46.5,19.5-72.5,19.5l0,0
	C794.7,396.3,770.2,389.5,747.9,375.8z M335.4,552.3c18-18,27-39.7,27-65s-9-46.8-27-64.5s-39.7-26.5-65-26.5
	c-25.3,0-47,8.8-65,26.5s-27,39.2-27,64.5s9,47,27,65s39.7,27,65,27l0,0C295.7,579.3,317.4,570.3,335.4,552.3z M625.4,737.8
	c-18,17.7-27,39.2-27,64.5c0,25.3,9,47,27,65s39.7,27,65,27s47-9,65-27s27-39.7,27-65c0-25.3-9-46.8-27-64.5
	c-18-17.7-39.7-26.5-65-26.5l0,0C665,711.3,643.4,720.2,625.4,737.8z M756.4,186.3c-18,18-27,39.7-27,65s9,47,27,65s39.7,27,65,27
	s47-9,65-27s27-39.7,27-65s-9-47-27-65s-39.7-27-65-27l0,0C796,159.3,774.4,168.3,756.4,186.3z"/>
</svg>
