<?xml version="1.0" encoding="utf-8"?>
<!-- Generator: Adobe Illustrator 24.3.0, SVG Export Plug-In . SVG Version: 6.00 Build 0)  -->
<svg version="1.1" id="图层_1" xmlns="http://www.w3.org/2000/svg" xmlns:xlink="http://www.w3.org/1999/xlink" x="0px" y="0px"
	 viewBox="0 0 1129.1 1080" style="enable-background:new 0 0 1129.1 1080;" xml:space="preserve">
<path d="M924.5,510L924.5,510c0-70.7-17.7-136.3-53-197l0,0c-34.7-58.7-81.3-105.3-140-140l0,0c-60.7-35.3-126.3-53-197-53
	s-136.3,17.7-197,53l0,0c-58.7,34.7-105.3,81.3-140,140l0,0c-35.3,60.7-53,126.3-53,197s17.7,136.3,53,197l0,0
	c34.7,58.7,81.3,105.3,140,140l0,0c60.7,35.3,126.3,53,197,53l0,0c85.3,0,162.3-25,231-75l126,126l0,0c6,6,13,9,21,9s15-3,21-9
	l42-42l0,0c6-6,9-13,9-21s-3-15-9-21l-129-129l0,0C895.2,670.7,921.2,594.7,924.5,510z M364.5,792L364.5,792
	c-50-28.7-89.3-68-118-118l0,0c-30-51.3-45-107-45-167s15-115.7,45-167l0,0c28.7-50,68-89.3,118-118l0,0c51.3-30,107-45,167-45
	s115.7,15,167,45l0,0c50,28.7,89.3,68,118,118l0,0c30,51.3,45,107,45,167s-15,115.7-45,167l0,0c-28.7,50-68,89.3-118,118l0,0
	c-51.3,30-107,45-167,45l0,0C471.5,837,415.9,822,364.5,792z M703.5,485c-5.3-5.3-12.7-8-22-8h-300l0,0c-8.7,0-15.8,2.7-21.5,8
	s-8.5,12.5-8.5,21.5s2.8,16.3,8.5,22s12.8,8.5,21.5,8.5h300l0,0c9.3,0,16.7-2.8,22-8.5s8-12.8,8-21.5l0,0
	C711.5,497.7,708.9,490.3,703.5,485z"/>
</svg>
