<?xml version="1.0" encoding="utf-8"?>
<!-- Generator: Adobe Illustrator 24.3.0, SVG Export Plug-In . SVG Version: 6.00 Build 0)  -->
<svg version="1.1" id="图层_1" xmlns="http://www.w3.org/2000/svg" xmlns:xlink="http://www.w3.org/1999/xlink" x="0px" y="0px"
	 viewBox="0 0 1012.4 1033.5" style="enable-background:new 0 0 1012.4 1033.5;" xml:space="preserve">
<path d="M283.2,897.7L283.2,897.7c-66.7-38.7-119.3-91.3-158-158l0,0c-40.7-68.7-61-143-61-223s20.3-154.3,61-223l0,0
	c38.7-66.7,91.3-119.3,158-158l0,0c68.7-40.7,143-61,223-61s154.3,20.3,223,61l0,0c66.7,38.7,119.3,91.3,158,158l0,0
	c40.7,68.7,61,143,61,223s-20.3,154.3-61,223l0,0c-38.7,66.7-91.3,119.3-158,158l0,0c-68.7,40.7-143,61-223,61l0,0
	C426.2,958.7,351.9,938.4,283.2,897.7z M696.2,841.7L696.2,841.7c56.7-33.3,101.7-78.3,135-135l0,0c34-58.7,51-122,51-190
	s-17-131.3-51-190l0,0c-33.3-56.7-78.3-101.7-135-135l0,0c-58.7-34-121.8-51-189.5-51s-130.7,16.7-189,50s-104.2,79.2-137.5,137.5
	s-50,121.2-50,188.5s16.7,130.2,50,188.5c33.3,58.3,79.2,104.2,137.5,137.5c58.3,33.3,121.2,50,188.5,50l0,0
	C574.2,892.7,637.5,875.7,696.2,841.7z M281.7,661.2c-1.7-5.7-1.7-11.3,0-17c1.7-5.7,4.5-10.5,8.5-14.5s8.8-6.8,14.5-8.5
	c5.7-1.7,11.3-1.7,17,0c5.7,1.7,10.5,4.5,14.5,8.5l0,0c30.7,30.7,66.7,51.5,108,62.5s82.7,11,124,0s77.3-31.8,108-62.5l0,0
	c6-6,13.5-9,22.5-9s16.8,3.2,23.5,9.5c6.7,6.3,10,14,10,23s-3.3,16.8-10,23.5l0,0c-28.7,28-61.7,49.8-99,65.5
	c-37.3,15.7-76.3,23.5-117,23.5s-79.7-7.8-117-23.5c-37.3-15.7-70.3-37.5-99-65.5l0,0C286.2,672.1,283.4,666.9,281.7,661.2z
	 M353.2,431.7L353.2,431.7z M308.2,405.7c4.7-8,11-14.2,19-18.5c8-4.3,16.5-6.5,25.5-6.5s17.5,2.2,25.5,6.5c8,4.3,14.3,10.5,19,18.5
	s7,16.5,7,25.5s-2.3,17.5-7,25.5s-11,14.3-19,19s-16.5,7-25.5,7s-17.5-2.3-25.5-7s-14.3-11-19-19s-7-16.3-7-25l0,0
	C301.2,422.4,303.5,413.7,308.2,405.7z M659.2,431.7L659.2,431.7z M615.2,405.7c4.7-8,11-14.2,19-18.5c8-4.3,16.5-6.5,25.5-6.5
	s17.5,2.2,25.5,6.5c8,4.3,14.3,10.5,19,18.5s7,16.5,7,25.5s-2.3,17.5-7,25.5s-11,14.3-19,19s-16.5,7-25.5,7s-17.5-2.3-25.5-7
	s-14.3-11-19-19s-7-16.3-7-25l0,0C608.2,422.4,610.5,413.7,615.2,405.7z"/>
</svg>
