<?xml version="1.0" encoding="utf-8"?>
<!-- Generator: Adobe Illustrator 24.3.0, SVG Export Plug-In . SVG Version: 6.00 Build 0)  -->
<svg version="1.1" id="图层_1" xmlns="http://www.w3.org/2000/svg" xmlns:xlink="http://www.w3.org/1999/xlink" x="0px" y="0px"
	 viewBox="0 0 1068.5 975.9" style="enable-background:new 0 0 1068.5 975.9;" xml:space="preserve">
<path d="M313.2,109.9L313.2,109.9c-65.3,39.3-117.7,91.7-157,157l0,0c-39.3,68-59,141.7-59,221s19.7,153,59,221l0,0
	c39.3,65.3,91.7,117.7,157,157l0,0c68,39.3,141.7,59,221,59s153-19.7,221-59l0,0c65.3-39.3,117.7-91.7,157-157l0,0
	c39.3-68,59-141.7,59-221s-19.7-153-59-221l0,0c-39.3-65.3-91.7-117.7-157-157l0,0c-68-39.3-141.7-59-221-59l0,0
	C454.9,50.9,381.2,70.6,313.2,109.9z M752.2,601.9c0.7,8.7-1.7,16.3-7,23l0,0c-60,70.7-130.3,106-211,106s-151-35.3-211-106l0,0
	c-5.3-6.7-7.7-14.5-7-23.5s4.3-16.2,11-21.5c6.7-5.3,14.5-7.7,23.5-7c9,0.7,16.2,4.3,21.5,11l0,0c46,56.7,100,85,162,85
	s116-28.3,162-85l0,0c5.3-6.7,12.5-10.3,21.5-11c9-0.7,16.8,1.7,23.5,7l0,0C747.9,585.9,751.6,593.3,752.2,601.9z M414.2,349.9
	c8,7.3,12.3,17,13,29v66l0,0c0,12-4.2,22.2-12.5,30.5s-18.2,12.5-29.5,12.5s-21-4-29-12s-12.7-17.7-14-29v-66l0,0
	c0-11.3,4.2-21.2,12.5-29.5s18.5-12.5,30.5-12.5l0,0C396.6,338.9,406.2,342.6,414.2,349.9z M712.7,349.9c7.7,7.3,12.2,17,13.5,29v66
	l0,0c0,12-4.2,22.2-12.5,30.5s-18.3,12.5-30,12.5s-21.5-4-29.5-12s-12.3-17.7-13-29v-66l0,0c0-11.3,4.2-21.2,12.5-29.5
	s18.2-12.5,29.5-12.5l0,0C695.2,338.9,705.1,342.6,712.7,349.9z"/>
</svg>
