<?xml version="1.0" encoding="utf-8"?>
<!-- Generator: Adobe Illustrator 24.3.0, SVG Export Plug-In . SVG Version: 6.00 Build 0)  -->
<svg version="1.1" id="图层_1" xmlns="http://www.w3.org/2000/svg" xmlns:xlink="http://www.w3.org/1999/xlink" x="0px" y="0px"
	 viewBox="0 0 1026 1003.2" style="enable-background:new 0 0 1026 1003.2;" xml:space="preserve">
<path d="M734,123.6L734,123.6c65.3,39.3,117.7,91.7,157,157l0,0c39.3,68,59,141.7,59,221s-19.7,153-59,221l0,0
	c-39.3,65.3-91.7,117.7-157,157l0,0c-68,39.3-141.7,59-221,59s-153-19.7-221-59l0,0c-65.3-39.3-117.7-91.7-157-157l0,0
	c-39.3-68-59-141.7-59-221s19.7-153,59-221l0,0c39.3-65.3,91.7-117.7,157-157l0,0c68-39.3,141.7-59,221-59l0,0
	C592.3,64.6,666,84.2,734,123.6z M835,313.6L835,313.6c-33.3-56-78-100.7-134-134l0,0c-58-34-120.7-51-188-51l0,0
	c-44.7,0-87.7,7.5-129,22.5s-78,36.5-110,64.5l533,514l0,0c25.3-32.7,44.7-68,58-106l0,0c14-39.3,21-80,21-122l0,0
	C886,434.2,869,371.6,835,313.6z M191,689.6L191,689.6c32.7,56,77.3,100.7,134,134l0,0c57.3,34,119.3,51,186,51l0,0
	c47.3,0,93.3-8.7,138-26l0,0c41.3-17.3,79.3-41.3,114-72l-536-516l0,0c-27.3,34-48.7,71-64,111l0,0c-15.3,42-23,85.3-23,130l0,0
	C140,568.9,157,631.6,191,689.6z"/>
</svg>
