<?xml version="1.0" encoding="utf-8"?>
<!-- Generator: Adobe Illustrator 24.3.0, SVG Export Plug-In . SVG Version: 6.00 Build 0)  -->
<svg version="1.1" id="图层_1" xmlns="http://www.w3.org/2000/svg" xmlns:xlink="http://www.w3.org/1999/xlink" x="0px" y="0px"
	 viewBox="0 0 1016.9 969.8" style="enable-background:new 0 0 1016.9 969.8;" xml:space="preserve">
<path d="M729.5,106.9L729.5,106.9c65.3,39.3,117.7,91.7,157,157l0,0c39.3,68,59,141.7,59,221s-19.7,153-59,221l0,0
	c-39.3,65.3-91.7,117.7-157,157l0,0c-68,39.3-141.7,59-221,59s-153-19.7-221-59l0,0c-65.3-39.3-117.7-91.7-157-157l0,0
	c-39.3-68-59-141.7-59-221s19.7-153,59-221l0,0c39.3-65.3,91.7-117.7,157-157l0,0c68-39.3,141.7-59,221-59l0,0
	C587.8,47.9,661.5,67.6,729.5,106.9z M753.5,376.4c-0.7-8.3-4-15.5-10-21.5l-2-2l0,0c-6.7-5.3-14.2-7.7-22.5-7s-15.2,3.7-20.5,9
	l-254,254l-128-128l0,0c-6-5.3-13.2-7.7-21.5-7s-15.5,3.8-21.5,9.5s-9,12.8-9,21.5c0,8.7,3,16.3,9,23l152,151l0,0
	c6,5.3,13.2,7.7,21.5,7s15.2-3.7,20.5-9l278-277l2-2l0,0C752.1,391.9,754.1,384.7,753.5,376.4z"/>
</svg>
