<?xml version="1.0" encoding="utf-8"?>
<!-- Generator: Adobe Illustrator 24.3.0, SVG Export Plug-In . SVG Version: 6.00 Build 0)  -->
<svg version="1.1" id="图层_1" xmlns="http://www.w3.org/2000/svg" xmlns:xlink="http://www.w3.org/1999/xlink" x="0px" y="0px"
	 viewBox="0 0 1098.8 1030.4" style="enable-background:new 0 0 1098.8 1030.4;" xml:space="preserve">
<path d="M326.4,896.2L326.4,896.2c-66.7-38.7-119.3-91.3-158-158l0,0c-40.7-68.7-61-143-61-223s20.3-154.3,61-223l0,0
	c38.7-66.7,91.3-119.3,158-158l0,0c68.7-40.7,143-61,223-61s154.3,20.3,223,61l0,0c66.7,38.7,119.3,91.3,158,158l0,0
	c40.7,68.7,61,143,61,223s-20.3,154.3-61,223l0,0c-38.7,66.7-91.3,119.3-158,158l0,0c-68.7,40.7-143,61-223,61l0,0
	C469.4,957.2,395.1,936.9,326.4,896.2z M739.4,840.2L739.4,840.2c56.7-33.3,101.7-78.3,135-135l0,0c34-58.7,51-122,51-190
	s-17-131.3-51-190l0,0c-33.3-56.7-78.3-101.7-135-135l0,0c-58.7-34-121.8-51-189.5-51s-130.7,16.7-189,50s-104.2,79.2-137.5,137.5
	s-50,121.2-50,188.5s16.7,130.2,50,188.5c33.3,58.3,79.2,104.2,137.5,137.5c58.3,33.3,121.2,50,188.5,50l0,0
	C617.4,891.2,680.7,874.2,739.4,840.2z M554.4,351.2L554.4,351.2c0-8.7,3.2-16.2,9.5-22.5s14-9.5,23-9.5s16.7,3.2,23,9.5
	s9.5,13.8,9.5,22.5v181l0,0c0,11.3-3.7,21-11,29l-158,164l0,0c-4,4.7-8.8,7.8-14.5,9.5c-5.7,1.7-11.3,1.8-17,0.5
	c-5.7-1.3-10.7-4-15-8s-7.3-8.8-9-14.5c-1.7-5.7-1.8-11.3-0.5-17c1.3-5.7,4.3-10.8,9-15.5l151-158V351.2z"/>
</svg>
