<?xml version="1.0" encoding="utf-8"?>
<!-- Generator: Adobe Illustrator 24.3.0, SVG Export Plug-In . SVG Version: 6.00 Build 0)  -->
<svg version="1.1" id="图层_1" xmlns="http://www.w3.org/2000/svg" xmlns:xlink="http://www.w3.org/1999/xlink" x="0px" y="0px"
	 viewBox="0 0 960 983.5" style="enable-background:new 0 0 960 983.5;" xml:space="preserve">
<path d="M692.5,129.2L692.5,129.2c63.3,37.3,113.7,87.7,151,151l0,0c38,65.3,57,136,57,212s-19,146.7-57,212l0,0
	c-37.3,63.3-87.7,113.3-151,150l0,0c-65.3,38.7-136,58-212,58s-146.7-19.3-212-58l0,0c-63.3-36.7-113.7-86.7-151-150l0,0
	c-38.7-65.3-58-136-58-212s19.3-146.7,58-212l0,0c37.3-63.3,87.7-113.7,151-151l0,0c65.3-38.7,136-58,212-58l0,0
	C556.5,71.2,627.2,90.6,692.5,129.2z M641.5,682.7c0-9.7-3.3-17.8-10-24.5l0,0l0,0c-78-77.3-117-116.3-117-117v-249l0,0
	c0-10-3.5-18.5-10.5-25.5s-15.3-10.5-25-10.5c-9.7,0-17.8,3.5-24.5,10.5s-10,15.5-10,25.5l0,0l0,0c2.7,152.7,4,235.7,4,249v4l0,0
	c0,10.7,0.3,18,1,22l0,0c1.3,6.7,4,12,8,16l124,124l0,0c6.7,7.3,14.8,11,24.5,11s18.2-3.7,25.5-11l0,0
	C638.2,700.6,641.5,692.4,641.5,682.7z"/>
</svg>
