<?xml version="1.0" encoding="utf-8"?>
<!-- Generator: Adobe Illustrator 24.3.0, SVG Export Plug-In . SVG Version: 6.00 Build 0)  -->
<svg version="1.1" id="图层_1" xmlns="http://www.w3.org/2000/svg" xmlns:xlink="http://www.w3.org/1999/xlink" x="0px" y="0px"
	 viewBox="0 0 960 957.7" style="enable-background:new 0 0 960 957.7;" xml:space="preserve">
<path d="M868,748.8l-118,118c-2.7,2.7-6.3,4-11,4s-8.3-1.3-11-4l0,0l-237-230c-2.7-3.3-6.3-5-11-5c-4.7,0-8.3,1.7-11,5l0,0l-236,230
	c-3.3,2.7-7.3,4-12,4c-4.7,0-8.3-1.3-11-4l0,0l-118-118c-2.7-2.7-4-6.3-4-11s1.3-8.3,4-11l0,0l236-237c2.7-2.7,4-6.3,4-11
	s-1.3-8.3-4-11l0,0l-236-236c-2.7-3.3-4-7.3-4-12c0-4.7,1.3-8.3,4-11l0,0l118-118c2.7-2.7,6.3-4,11-4c4.7,0,8.7,1.3,12,4l0,0
	l236,236c2.7,2.7,6.3,4,11,4c4.7,0,8.3-1.3,11-4l0,0l237-236c2.7-2.7,6.3-4,11-4s8.3,1.3,11,4l0,0l118,118c2.7,2.7,4,6.3,4,11
	c0,4.7-1.3,8.7-4,12l0,0l-236,236c-2.7,2.7-4,6.3-4,11s1.3,8.3,4,11l0,0l236,237c2.7,2.7,4,6.3,4,11S870.7,746.2,868,748.8
	L868,748.8z"/>
</svg>
