<?xml version="1.0" encoding="utf-8"?>
<!-- Generator: Adobe Illustrator 24.3.0, SVG Export Plug-In . SVG Version: 6.00 Build 0)  -->
<svg version="1.1" id="图层_1" xmlns="http://www.w3.org/2000/svg" xmlns:xlink="http://www.w3.org/1999/xlink" x="0px" y="0px"
	 viewBox="0 0 1007.8 1021.3" style="enable-background:new 0 0 1007.8 1021.3;" xml:space="preserve">
<path d="M946,280.7c3.3-4,4.5-9.7,3.5-17s-4.5-12.3-10.5-15l-121-103l0,0c-3.3-5.3-8.5-7.7-15.5-7s-12.5,3-16.5,7l-365,429l0,0
	c-3.3,3.3-8.7,5-16,5s-12.7-1.7-16-5l-186-173l0,0c-3.3-3.3-8.7-5-16-5s-12.7,1.7-16,5l-109,115l0,0c-2.7,3.3-4,8-4,14s1.3,12,4,18
	l346,327l0,0c6,5.3,12,7.7,18,7l0,0c5.3-0.7,10-3,14-7L946,280.7L946,280.7z"/>
</svg>
