<?xml version="1.0" encoding="utf-8"?>
<!-- Generator: Adobe Illustrator 24.3.0, SVG Export Plug-In . SVG Version: 6.00 Build 0)  -->
<svg version="1.1" id="图层_1" xmlns="http://www.w3.org/2000/svg" xmlns:xlink="http://www.w3.org/1999/xlink" x="0px" y="0px"
	 viewBox="0 0 1020 978.9" style="enable-background:new 0 0 1020 978.9;" xml:space="preserve">
<path d="M188.5,121c5.7,5.7,12.8,8.5,21.5,8.5h600l0,0c9.3,0,16.7-2.8,22-8.5s8-13,8-22s-2.7-16.2-8-21.5s-12.7-8-22-8H210l0,0
	c-8.7,0-15.8,2.7-21.5,8s-8.5,12.7-8.5,22l0,0C180,108.1,182.8,115.3,188.5,121z M786,540.5c6,6,13,9,21,9s15-3,21-9s9-13,9-21
	s-3-15-9-21l-297-297l0,0c-6-6-13-9-21-9s-15,3-21,9l-297,297l0,0c-6,6-9,13-9,21s3,15,9,21s13,9,21,9s15-3,21-9l246-246v585l0,0
	c0,8.7,2.8,15.8,8.5,21.5s13,8.5,22,8.5s16.2-2.8,21.5-8.5s8-12.8,8-21.5v-585L786,540.5L786,540.5z"/>
</svg>
