<?xml version="1.0" encoding="utf-8"?>
<!-- Generator: Adobe Illustrator 24.3.0, SVG Export Plug-In . SVG Version: 6.00 Build 0)  -->
<svg version="1.1" id="图层_1" xmlns="http://www.w3.org/2000/svg" xmlns:xlink="http://www.w3.org/1999/xlink" x="0px" y="0px"
	 viewBox="0 0 1071.5 992.5" style="enable-background:new 0 0 1071.5 992.5;" xml:space="preserve">
<path d="M761.7,883.3L761.7,883.3c67.3-40,121-93.7,161-161l0,0c40.7-70,61-145.3,61-226s-20.3-156-61-226l0,0
	c-40-67.3-93.7-121-161-161l0,0c-70-40.7-145.3-61-226-61s-156,20.3-226,61l0,0c-67.3,40-121,93.7-161,161l0,0
	c-40.7,70-61,145.3-61,226s20.3,156,61,226l0,0c40,67.3,93.7,121,161,161l0,0c70,40.7,145.3,61,226,61l0,0
	C616.4,944.3,691.7,923.9,761.7,883.3z M342.7,827.3L342.7,827.3c-58-34-104-80-138-138l0,0c-35.3-59.3-53-123.7-53-193
	s17.7-133.7,53-193l0,0c34-58,80-104,138-138l0,0c59.3-35.3,123.7-53,193-53s133.7,17.7,193,53l0,0c58,34,104,80,138,138l0,0
	c35.3,59.3,53,123.7,53,193s-17.7,133.7-53,193l0,0c-34,58-80,104-138,138l0,0c-59.3,35.3-123.7,53-193,53l0,0
	C466.4,880.3,402.1,862.6,342.7,827.3z M567.7,688.3c0,9.3-3,17-9,23s-13.7,9-23,9c-9.3,0-17-3-23-9s-9-13.7-9-23v-314l-80,80l0,0
	c-6.7,6.7-14.2,10-22.5,10s-15.7-3.2-22-9.5s-9.5-13.8-9.5-22.5s3-16,9-22l112-112l0,0c12.7-13.3,27.7-20,45-20
	c17.3,0,32.3,6.7,45,20l112,112l0,0c6,6,9,13.3,9,22s-3.2,16.2-9.5,22.5s-13.7,9.5-22,9.5s-15.8-3.3-22.5-10l-80-80V688.3
	L567.7,688.3z"/>
</svg>
