<?xml version="1.0" encoding="utf-8"?>
<!-- Generator: Adobe Illustrator 24.3.0, SVG Export Plug-In . SVG Version: 6.00 Build 0)  -->
<svg version="1.1" id="图层_1" xmlns="http://www.w3.org/2000/svg" xmlns:xlink="http://www.w3.org/1999/xlink" x="0px" y="0px"
	 viewBox="0 0 1035.1 1056.2" style="enable-background:new 0 0 1035.1 1056.2;" xml:space="preserve">
<path d="M953.6,671.1v153c0,24.7-6.3,47.7-19,69s-29.7,38.3-51,51s-44.3,19-69,19l0,0h-594c-24.7,0-47.7-6.3-69-19s-38.3-29.7-51-51
	s-19-44.3-19-69l0,0v-591c0-24.7,6.3-47.7,19-69s29.7-38.5,51-51.5s44.3-19.5,69-19.5l0,0h591c24.7,0,47.7,6.5,69,19.5
	s38.5,30.2,51.5,51.5s19.5,44.3,19.5,69l0,0v147h-314c0,0-1.3,0-4,0l0,0c-26.7,2.7-48.7,10-66,22l0,0c-33.3,23.3-50,63.3-50,120l0,0
	c0,47.3,11.3,84,34,110l0,0c16,18.7,37,30.7,63,36l0,0c13.3,3.3,24.7,4.3,34,3l0,0H953.6z M573.6,524.1L573.6,524.1
	c0-30.7,8.3-54,25-70l0,0c11.3-12,26.3-19.3,45-22l0,0c8.7-2,16.7-2.3,24-1l0,0h276v200h-268c0,0-1.7,0-5,0l0,0
	c-22.7-2.7-41.3-8.7-56-18l0,0C587.2,595.8,573.6,566.1,573.6,524.1z M678.6,570.1L678.6,570.1c9.3,0,17.3-3.5,24-10.5
	s10-15.2,10-24.5l0,0c0-12-6-22.7-18-32l0,0c-5.3-2.7-11.2-4-17.5-4s-12.2,1.3-17.5,4s-9.8,7-13.5,13c-3.7,6-5.5,12.3-5.5,19l0,0
	c1.3,9.3,5.7,17.5,13,24.5S669.2,570.1,678.6,570.1z"/>
</svg>
