<?xml version="1.0" encoding="utf-8"?>
<!-- Generator: Adobe Illustrator 24.3.0, SVG Export Plug-In . SVG Version: 6.00 Build 0)  -->
<svg version="1.1" id="图层_1" xmlns="http://www.w3.org/2000/svg" xmlns:xlink="http://www.w3.org/1999/xlink" x="0px" y="0px"
	 viewBox="0 0 1062.4 1060.8" style="enable-background:new 0 0 1062.4 1060.8;" xml:space="preserve">
<path d="M531.2,88.4L531.2,88.4c80,0,154.3,20.3,223,61l0,0c66.7,38.7,119.3,91.3,158,158l0,0c40.7,68.7,61,143,61,223
	s-20.3,154.3-61,223l0,0c-38.7,66.7-91.3,119.3-158,158l0,0c-68.7,40.7-143,61-223,61s-154.3-20.3-223-61l0,0
	c-66.7-38.7-119.3-91.3-158-158l0,0c-40.7-68.7-61-143-61-223s20.3-154.3,61-223l0,0c38.7-66.7,91.3-119.3,158-158l0,0
	C376.9,108.7,451.2,88.4,531.2,88.4z M531.2,154.4L531.2,154.4c-67.3,0-130.2,16.7-188.5,50s-104.2,79.2-137.5,137.5
	s-50,121.2-50,188.5s16.7,130.2,50,188.5S284.4,823,342.7,856.4s121.3,50,189,50s130.8-17,189.5-51l0,0
	c56.7-33.3,101.7-78.3,135-135l0,0c34-58.7,51-122,51-190s-17-131.3-51-190l0,0c-33.3-56.7-78.3-101.7-135-135l0,0
	C662.5,171.4,599.2,154.4,531.2,154.4z M531.2,366.4L531.2,366.4z M490.2,366.4L490.2,366.4c0-11.3,4-21,12-29s17.7-12,29-12
	c11.3,0,21,4,29,12s12,17.7,12,29c0,11.3-4,21-12,29s-17.7,12-29,12c-11.3,0-21-4-29-12S490.2,377.7,490.2,366.4z M498.2,755.4
	L498.2,755.4v-277c0-9.3,3.2-17.2,9.5-23.5c6.3-6.3,14.2-9.5,23.5-9.5c9.3,0,17.2,3.2,23.5,9.5s9.5,14.2,9.5,23.5l0,0v277
	c0,9.3-3.2,17.2-9.5,23.5s-14.2,9.5-23.5,9.5c-9.3,0-17.2-3.2-23.5-9.5C501.4,772.5,498.2,764.7,498.2,755.4z"/>
</svg>
